<?xml version="1.0" encoding="utf-8"?>
<!-- Generator: Adobe Illustrator 24.1.1, SVG Export Plug-In . SVG Version: 6.00 Build 0)  -->
<svg version="1.1" id="Capa_1" xmlns="http://www.w3.org/2000/svg" xmlns:xlink="http://www.w3.org/1999/xlink" x="0px" y="0px"
	 viewBox="0 0 472.3 487.1" style="enable-background:new 0 0 472.3 487.1;" xml:space="preserve">
<style type="text/css">
	.st0{fill:#71A023;}
	.st1{fill:#B1CA07;}
</style>
<g>
	<path class="st0" d="M200,301.4h3.1v2.9H200V301.4z M200,306.7h3.1v13.9H200V306.7z"/>
	<path class="st0" d="M205.8,306.7h2.9v2l0.1,0.1c0.9-1.5,2.5-2.5,4.3-2.5c3,0,4.9,1.6,4.9,4.7v9.5h-3.1v-8.7
		c-0.1-2.2-0.9-3.1-2.7-3.1c-2,0-3.3,1.6-3.3,3.6v8.2h-3.1V306.7z"/>
	<path class="st0" d="M219.3,306.7h3.3l3.5,10.6h0.1l3.4-10.6h3.2l-5,13.9h-3.4L219.3,306.7z"/>
	<path class="st0" d="M236.4,314.4c0,2.2,1.2,4.1,3.7,4.1c1.8,0,2.8-0.8,3.4-2.3h2.9c-0.7,3-3.2,4.7-6.3,4.7c-4.3,0-6.8-3-6.8-7.3
		c0-3.9,2.6-7.3,6.7-7.3c4.4,0,7,3.9,6.5,8.1H236.4z M243.6,312.4c-0.1-1.9-1.4-3.7-3.5-3.7c-2.1,0-3.6,1.6-3.6,3.7H243.6z"/>
	<path class="st0" d="M250.7,316.1c0.2,1.8,1.5,2.4,3.1,2.4c1.2,0,3.2-0.2,3.1-1.8c-0.1-1.6-2.3-1.8-4.5-2.3
		c-2.2-0.5-4.4-1.3-4.4-4.1c0-3,3.3-4,5.8-4c2.8,0,5.4,1.2,5.8,4.3h-3.2c-0.3-1.4-1.5-1.8-2.8-1.8c-0.9,0-2.5,0.2-2.5,1.4
		c0,1.5,2.2,1.7,4.5,2.2c2.2,0.5,4.5,1.3,4.5,4c0,3.3-3.3,4.5-6.2,4.5c-3.5,0-6.1-1.6-6.1-4.8H250.7z"/>
	<path class="st0" d="M260.4,306.7h2.3v-4.2h3.1v4.2h2.8v2.3h-2.8v7.4c0,1.3,0.1,1.9,1.5,1.9c0.4,0,0.9,0,1.3-0.1v2.4
		c-0.7,0.1-1.3,0.2-2,0.2c-3.2,0-3.8-1.2-3.8-3.5V309h-2.3V306.7z"/>
	<path class="st0" d="M270.1,306.7h2.9v1.9h0.1c0.9-1.4,2.1-2.3,4.3-2.3c1.7,0,3.3,0.7,3.9,2.3c1-1.4,2.3-2.3,4.3-2.3
		c2.9,0,4.6,1.3,4.6,4.7v9.6h-3.1v-8.1c0-2.2-0.1-3.7-2.5-3.7c-2.1,0-2.9,1.4-2.9,3.7v8.1h-3.1v-8.9c0-1.9-0.6-2.9-2.4-2.9
		c-1.6,0-3,1.3-3,3.6v8.2h-3.1V306.7z"/>
	<path class="st0" d="M295.3,314.4c0,2.2,1.2,4.1,3.7,4.1c1.8,0,2.8-0.8,3.4-2.3h2.9c-0.7,3-3.2,4.7-6.3,4.7c-4.3,0-6.8-3-6.8-7.3
		c0-3.9,2.6-7.3,6.7-7.3c4.4,0,7,3.9,6.5,8.1H295.3z M302.4,312.4c-0.1-1.9-1.4-3.7-3.5-3.7c-2.1,0-3.6,1.6-3.6,3.7H302.4z"/>
	<path class="st0" d="M307.3,306.7h2.9v2l0.1,0.1c0.9-1.5,2.5-2.5,4.3-2.5c3,0,4.9,1.6,4.9,4.7v9.5h-3.1v-8.7
		c-0.1-2.2-0.9-3.1-2.7-3.1c-2,0-3.3,1.6-3.3,3.6v8.2h-3.1V306.7z"/>
	<path class="st0" d="M320.7,306.7h2.3v-4.2h3.1v4.2h2.8v2.3h-2.8v7.4c0,1.3,0.1,1.9,1.5,1.9c0.4,0,0.9,0,1.3-0.1v2.4
		c-0.7,0.1-1.3,0.2-2,0.2c-3.2,0-3.8-1.2-3.8-3.5V309h-2.3V306.7z"/>
	<path class="st0" d="M332.8,316.1c0.2,1.8,1.5,2.4,3.1,2.4c1.2,0,3.2-0.2,3.1-1.8c-0.1-1.6-2.3-1.8-4.5-2.3
		c-2.2-0.5-4.4-1.3-4.4-4.1c0-3,3.3-4,5.8-4c2.8,0,5.4,1.2,5.8,4.3h-3.2c-0.3-1.4-1.5-1.8-2.8-1.8c-0.9,0-2.5,0.2-2.5,1.4
		c0,1.5,2.2,1.7,4.5,2.2c2.2,0.5,4.5,1.3,4.5,4c0,3.3-3.3,4.5-6.2,4.5c-3.5,0-6.1-1.6-6.1-4.8H332.8z"/>
	<path class="st0" d="M125.2,341.2c-0.2-1.7-1.5-2.6-3.2-2.6c-1.6,0-3.8,0.8-3.8,5c0,2.3,1,4.7,3.7,4.7c1.8,0,3-1.2,3.3-3.2h3.1
		c-0.6,3.6-2.8,5.6-6.3,5.6c-4.3,0-6.7-3.1-6.7-7.2c0-4.2,2.3-7.4,6.8-7.4c3.2,0,5.9,1.6,6.2,5H125.2z"/>
	<path class="st0" d="M129.5,343.5c0-4.2,2.5-7.3,7-7.3s7,3.1,7,7.3c0,4.3-2.5,7.3-7,7.3S129.5,347.7,129.5,343.5z M140.5,343.5
		c0-2.4-1.2-4.9-3.9-4.9c-2.7,0-3.9,2.5-3.9,4.9c0,2.4,1.2,4.9,3.9,4.9C139.3,348.4,140.5,345.9,140.5,343.5z"/>
	<path class="st0" d="M145.5,336.6h2.9v2l0.1,0.1c0.9-1.5,2.5-2.5,4.3-2.5c3,0,4.9,1.6,4.9,4.7v9.5h-3.1v-8.7
		c-0.1-2.2-0.9-3.1-2.7-3.1c-2,0-3.3,1.6-3.3,3.6v8.2h-3.1V336.6z"/>
	<path class="st0" d="M162.7,346c0.2,1.8,1.5,2.4,3.1,2.4c1.2,0,3.2-0.2,3.1-1.8c-0.1-1.6-2.3-1.8-4.5-2.3c-2.2-0.5-4.4-1.3-4.4-4.1
		c0-3,3.3-4,5.8-4c2.8,0,5.4,1.2,5.8,4.3h-3.2c-0.3-1.4-1.5-1.8-2.8-1.8c-0.9,0-2.5,0.2-2.5,1.4c0,1.5,2.2,1.7,4.5,2.2
		c2.2,0.5,4.5,1.3,4.5,4c0,3.3-3.3,4.5-6.2,4.5c-3.5,0-6.1-1.6-6.1-4.8H162.7z"/>
	<path class="st0" d="M185.9,350.4h-3v-1.9h-0.1c-0.7,1.4-2.4,2.3-3.9,2.3c-3.6,0-5.2-1.8-5.2-5.4v-8.8h3.1v8.5c0,2.4,1,3.3,2.7,3.3
		c2.5,0,3.4-1.6,3.4-3.8v-8h3.1V350.4z"/>
	<path class="st0" d="M188.6,331.3h3.1v19.1h-3.1V331.3z"/>
	<path class="st0" d="M193.1,336.6h2.3v-4.2h3.1v4.2h2.8v2.3h-2.8v7.4c0,1.3,0.1,1.9,1.5,1.9c0.4,0,0.9,0,1.3-0.1v2.4
		c-0.7,0.1-1.3,0.2-2,0.2c-3.2,0-3.8-1.2-3.8-3.5v-8.2h-2.3V336.6z"/>
	<path class="st0" d="M202.9,331.3h3.1v2.9h-3.1V331.3z M202.9,336.6h3.1v13.9h-3.1V336.6z"/>
	<path class="st0" d="M208.8,336.6h2.9v2l0.1,0.1c0.9-1.5,2.5-2.5,4.3-2.5c3,0,4.9,1.6,4.9,4.7v9.5h-3.1v-8.7
		c-0.1-2.2-0.9-3.1-2.7-3.1c-2,0-3.3,1.6-3.3,3.6v8.2h-3.1V336.6z"/>
	<path class="st0" d="M236.4,349.7c0,4.2-2.4,6.2-6.8,6.2c-2.8,0-5.9-1.1-6.2-4.3h3.1c0.4,1.7,1.8,2,3.3,2c2.5,0,3.6-1.3,3.6-3.5
		V348h-0.1c-0.9,1.5-2.4,2.4-4.2,2.4c-4.4,0-6.2-3.3-6.2-7.3c0-3.7,2.3-6.9,6.3-6.9c1.7,0,3.3,0.7,4.1,2.3h0.1v-1.9h3.1V349.7z
		 M233.4,343.2c0-2.4-1.1-4.6-3.7-4.6c-2.7,0-3.6,2.5-3.6,4.8c0,2.3,1.1,4.6,3.6,4.6C232.4,348,233.4,345.5,233.4,343.2z"/>
	<path class="st0" d="M248.2,346c0.2,1.8,1.5,2.4,3.1,2.4c1.2,0,3.2-0.2,3.1-1.8c-0.1-1.6-2.3-1.8-4.5-2.3c-2.2-0.5-4.4-1.3-4.4-4.1
		c0-3,3.3-4,5.8-4c2.8,0,5.4,1.2,5.8,4.3h-3.2c-0.3-1.4-1.5-1.8-2.8-1.8c-0.9,0-2.5,0.2-2.5,1.4c0,1.5,2.2,1.7,4.5,2.2
		c2.2,0.5,4.5,1.3,4.5,4c0,3.3-3.3,4.5-6.2,4.5c-3.5,0-6.1-1.6-6.1-4.8H248.2z"/>
	<path class="st0" d="M261.6,344.3c0,2.2,1.2,4.1,3.7,4.1c1.8,0,2.8-0.8,3.4-2.3h2.9c-0.7,3-3.2,4.7-6.3,4.7c-4.3,0-6.8-3-6.8-7.3
		c0-3.9,2.6-7.3,6.7-7.3c4.4,0,7,3.9,6.5,8.1H261.6z M268.8,342.3c-0.1-1.9-1.4-3.7-3.5-3.7c-2.1,0-3.6,1.6-3.6,3.7H268.8z"/>
	<path class="st0" d="M273.6,336.6h2.9v2.7h0.1c0.3-1.5,2.2-3.1,4-3.1c0.7,0,0.9,0.1,1.2,0.1v2.9c-0.4-0.1-0.9-0.1-1.3-0.1
		c-2.1,0-3.8,1.7-3.8,4.7v6.6h-3.1V336.6z"/>
	<path class="st0" d="M281.1,336.6h3.3l3.5,10.6h0.1l3.4-10.6h3.2l-5,13.9h-3.4L281.1,336.6z"/>
	<path class="st0" d="M295.9,331.3h3.1v2.9h-3.1V331.3z M295.9,336.6h3.1v13.9h-3.1V336.6z"/>
	<path class="st0" d="M311.1,341.2c-0.2-1.7-1.5-2.6-3.2-2.6c-1.6,0-3.8,0.8-3.8,5c0,2.3,1,4.7,3.7,4.7c1.8,0,3-1.2,3.3-3.2h3.1
		c-0.6,3.6-2.8,5.6-6.3,5.6c-4.3,0-6.7-3.1-6.7-7.2c0-4.2,2.3-7.4,6.8-7.4c3.2,0,5.9,1.6,6.2,5H311.1z"/>
	<path class="st0" d="M318.5,344.3c0,2.2,1.2,4.1,3.7,4.1c1.8,0,2.8-0.8,3.4-2.3h2.9c-0.7,3-3.2,4.7-6.3,4.7c-4.3,0-6.8-3-6.8-7.3
		c0-3.9,2.6-7.3,6.7-7.3c4.4,0,7,3.9,6.5,8.1H318.5z M325.6,342.3c-0.1-1.9-1.4-3.7-3.5-3.7c-2.1,0-3.6,1.6-3.6,3.7H325.6z"/>
	<path class="st0" d="M332.8,346c0.2,1.8,1.5,2.4,3.1,2.4c1.2,0,3.2-0.2,3.1-1.8c-0.1-1.6-2.3-1.8-4.5-2.3c-2.2-0.5-4.4-1.3-4.4-4.1
		c0-3,3.3-4,5.8-4c2.8,0,5.4,1.2,5.8,4.3h-3.2c-0.3-1.4-1.5-1.8-2.8-1.8c-0.9,0-2.5,0.2-2.5,1.4c0,1.5,2.2,1.7,4.5,2.2
		c2.2,0.5,4.5,1.3,4.5,4c0,3.3-3.3,4.5-6.2,4.5c-3.5,0-6.1-1.6-6.1-4.8H332.8z"/>
</g>
<g>
	<g>
		<path class="st0" d="M381.1,345.8c-3.5,4.3-7.8,6.3-13.4,6.3c-8.8,0-15-5.2-15-14.2c0-6.7,5.5-11,11-13.8
			c-2.5-3.1-4.8-6.3-4.8-10.4c0-6.9,5.2-11.4,11.7-11.4c6.1,0,11.9,3.8,11.9,11.4c0,5.6-4,9.6-8.6,12.1l7.4,9
			c0.5-1.5,1.1-3.3,1.5-6.4h6.7c-0.5,4.1-1.6,8.4-3.7,11.7l9.2,11.1h-9.4L381.1,345.8z M367.7,329.1c-2.8,1.7-7.4,3.3-7.4,9
			c0,5.1,3.3,8,7.7,8c5.5,0,7.6-3.4,9-5.3L367.7,329.1z M365.7,313.2c0,3.1,2.6,5.5,4.3,8c2.9-1.9,5.6-3.9,5.6-7.8
			c0-3.1-1.9-5.5-4.9-5.5C367.9,307.9,365.7,310,365.7,313.2z"/>
	</g>
</g>
<g>
	<g>
		<path class="st1" d="M434.6,231.6c-0.6-0.7-1.3-1-2.2-1c-1.1,0-2.1,0.6-2.9,1.7c-3.3,4.4-6.1,8.1-8.3,11.2
			c-2.8,3.7-5.3,7.1-7.5,10.3c-2.3,3.2-4.3,6-6.1,8.3c-7.6,9.7-12.5,14.6-14.7,14.6c-1.2,0-1.8-1.3-1.8-3.9c0-8.1,2.5-18.5,7.6-31.1
			c5.1-12.6,7.6-21.7,7.6-27.1c0-7.2-1.8-12.4-5.5-15.8c-2.1-2-4.9-3-8.2-3c-6.2,0-13.1,4.5-20.8,13.4c-7.5,8.6-14.1,17.9-19.8,27.9
			l-2.1,3.6l10.8-30.6c0.5-1.4,0.8-2.8,0.8-4c0-1.4-0.5-3-1.5-4.6c-1-1.6-2.6-2.9-4.8-3.9c-2.2-1-4.3-1.5-6.3-1.5
			c-0.1,0-0.7,0-1.7,0.1c-1,0.1-1.8,0.7-2.2,1.9l-12.2,34.3c-5.4,7.3-9.4,12.7-12,16.1c-3.3,4.2-6.7,8.3-10.3,12.3
			c-4.2,4.7-9.6,9.3-16.1,13.7c-2.5,1.7-4.8,2.5-6.7,2.5c-4.7,0-7.9-3.6-9.5-10.9c-0.7-3.1-1-6.6-1-10.3c0-1.7,0.1-3.4,0.3-5.1
			c7.2,0,13.8-1.9,19.8-5.6c3.8-2.4,7.1-5.2,9.9-8.6c4.7-5.5,8.2-11.7,10.5-18.7c0.8-2.6,1.2-5.4,1.2-8.2c0-3.4-1-6.3-2.9-8.8
			c-2.5-3.3-6.3-4.9-11.4-4.9c-6.4,0-12.1,1.5-17.4,4.5c-5.2,3-9.7,6.8-13.6,11.5c-3.9,4.7-7.1,9.8-9.5,15.3
			c-2.2,4.7-3.8,9.5-4.9,14.5c-2.1,2.8-3.9,5.2-5.2,6.9c-3.3,4.2-6.7,8.3-10.3,12.3c-4.2,4.7-9.6,9.3-16,13.7
			c-2.5,1.7-4.8,2.5-6.7,2.5c-4.7,0-7.9-3.6-9.5-10.9c-0.7-3.1-1-6.6-1-10.3c0-1.7,0.1-3.4,0.3-5.1c7.2,0,13.8-1.9,19.8-5.6
			c3.8-2.4,7.1-5.2,9.9-8.6c4.7-5.5,8.2-11.7,10.5-18.7c0.8-2.6,1.2-5.4,1.2-8.2c0-3.4-1-6.3-3-8.8c-2.5-3.3-6.3-4.9-11.4-4.9
			c-6.4,0-12.2,1.5-17.4,4.5c-5.2,3-9.7,6.8-13.6,11.5c-3.9,4.7-7.1,9.8-9.5,15.3c-2.2,4.7-3.8,9.5-4.9,14.5l-7.6,10.2
			c-10.6,14.3-18.5,21.4-23.5,21.4c-2.3,0-3.4-1.6-3.4-4.9c0-10.3,5.2-24.2,15.5-41.8c2.6-4.4,4.8-8.1,6.7-11.2
			c1.9-3.1,2.8-5.3,2.8-6.7c0-2.8-1.5-5.3-4.6-7.5c-3.3-2.3-6-3.5-8.2-3.5c-1,0-1.9,0.3-2.6,1c-4.2,3.4-8.6,5.1-13.3,5.1
			c-1.9,0-3.6-0.3-5.4-0.9c0.6-2.9,0.9-5.8,0.9-8.8c0-3.3-0.6-6.2-1.8-8.6c-1.2-2.5-3.3-3.7-6.3-3.7c-2.3,0-4.3,1-6.2,3
			c-1.9,2-2.9,4.4-2.9,7.2c0,6.8,2.7,11.7,8.2,14.7c-2.7,9.4-6.8,17.9-12.1,25.5c-7.8,10.5-13.2,17.7-16.3,21.5
			c-6.8,8.2-14.5,15.2-23.2,21.1c8.3-22.2,15.8-44.1,22.4-65.9c0.3-1.1,0.5-2.3,0.5-3.5c0-1.8-1-3.5-2.9-5.1
			c-3.3-2.7-6.7-4.1-10.2-4.1c-1.8,0-2.9,0.6-3.4,1.9c-1.9,5-3.7,10-5.3,15.2c-0.9-3.2-2-6.3-3.4-9.1c-1.4-2.8-3.2-5.1-5.6-6.8
			c-2.3-1.7-5.3-2.6-8.9-2.6c-4.8,0-9.2,1.2-13.2,3.7c-7.4,4.6-13.7,11.9-18.8,22c-7.4,14.4-11.1,29.2-11.1,44.5
			c0,5.7,0.9,10.4,2.6,14.1c2.3,4.8,5.8,7.2,10.6,7.2c2.1,0,4.2-0.6,6.1-1.8c1.9-1.2,3.7-2.7,5.4-4.4c1.6-1.7,3-3.4,4.1-5l22.2-32
			c-5,15-10.1,28.9-15.4,41.6c-10.4,4.1-18.6,7.5-24.6,10.3c-14.3,6.9-21.5,15.4-21.5,25.5c0,5.8,1.7,10.3,5.1,13.5
			c3.4,3.2,8.7,4.8,15.8,4.8c11.3,0,20.4-5.3,27.1-15.8c5.4-8.4,11.5-21.1,18.2-37.9c13.5-7.8,25.6-18.4,36.1-31.7
			c2.3-2.9,6.6-8.7,12.8-17.4c6.4-8.7,10.9-17.6,13.4-26.7c2.3,0.6,4.6,0.9,7,0.9c2.4,0,5.3-0.4,8.5-1.3
			c-16.5,26-24.7,45.6-24.7,58.7c0,4.6,1.1,8.8,3.4,12.6c2.3,3.8,5.7,5.8,10.4,5.8c11.7,0,24.4-10,38.2-30l0.6-0.8
			c0,0.6-0.1,1.2-0.1,1.7c0,10.5,3.1,18.5,9.2,23.8c3.9,3.4,8.7,5.1,14.3,5.1c4.4,0,8.7-1.1,12.8-3.4c9.5-5,19.7-14.3,30.5-27.7
			c0,0.7-0.1,1.5-0.1,2.2c0,10.5,3.1,18.5,9.2,23.8c3.9,3.4,8.7,5.1,14.3,5.1c4.4,0,8.7-1.1,12.8-3.4c9.8-5.2,20.2-14.8,31.4-28.8
			l-6.3,17.8c-0.6,1.5-0.9,2.9-0.9,4.1c0,3.8,2,6.7,5.9,8.6c2.4,1.2,4.7,1.7,6.7,1.7c1.8,0,3-0.5,3.5-1.4l4.6-8.8
			c13.9-28.2,26.6-48.9,38-62.2c3.6-4.2,6.4-6.3,8.6-6.3c1,0,1.6,1.4,1.6,4.3c0,2.6-0.6,6.2-1.8,10.8c-1.7,6.1-3.7,12.3-6.2,18.6
			c-2.5,6.2-4.4,12.2-5.9,17.8c-0.8,2.8-1.1,5.3-1.1,7.6c0,7.9,1.5,13.3,4.5,16.2c3,2.9,6.8,4.4,11.3,4.4c6.2,0,13.2-5.1,21-15.2
			c4.7-6.1,8.6-11.3,11.7-15.6c3.1-4.3,5.4-7.6,6.9-9.7c2-2.7,4.5-6.1,7.5-10.2c0.5-0.7,0.8-1.4,0.8-2.3
			C435.5,233.1,435.2,232.3,434.6,231.6z M290.4,218.2c2.8-3.8,6.1-7,9.9-9.8c3.8-2.8,6.8-4.2,9-4.2c2.3,0,3.4,1.6,3.4,4.8
			c0,1.8-0.4,4.1-1.3,7c-1.9,6-4.9,11.5-9.1,16.3c-2.4,2.8-5.2,5.2-8.4,7.2c-5,3.2-10,4.8-15.1,4.8
			C280.8,234.5,284.7,225.8,290.4,218.2z M223.6,218.2c2.8-3.8,6.1-7,9.9-9.8s6.8-4.2,9-4.2c2.3,0,3.4,1.6,3.4,4.8
			c0,1.8-0.4,4.1-1.3,7c-1.9,6-4.9,11.5-9.1,16.3c-2.4,2.8-5.2,5.2-8.4,7.2c-5,3.2-10,4.8-15.1,4.8
			C214,234.5,217.9,225.8,223.6,218.2z M54.9,307.4c-3.2,6.8-6.7,12.3-10.4,16.5c-4.3,4.7-8.2,7.1-11.8,7.1c-2.3,0-4-0.9-5.3-2.6
			c-1.3-1.7-2-4.4-2-7.9c0-10.5,12-19.6,35.9-27.3C58.8,298.8,56.7,303.6,54.9,307.4z M54,270.3c-1.9,2.8-3.2,4.2-3.9,4.2
			c-1.3,0-1.9-1.6-1.9-4.7c0-6.5,1.4-15.5,4.1-27.1c2.7-11.6,7.4-21.5,13.8-29.7c4.7-6,8.3-8.9,10.8-8.9c0.4,0,1.3,0.3,2.8,1
			c1.4,0.6,3.1,4.9,4.9,12.9l1.2,5.6C70.2,246.4,59.6,262,54,270.3z"/>
	</g>
</g>
<g>
	<g>
		<circle class="st0" cx="73.6" cy="99.2" r="3.3"/>
	</g>
	<g>
		<g>
			<path class="st0" d="M74.5,99c-8.9-2.8-17.1-7.3-24-13.6c-3.4-3.1-6.5-6.6-9.1-10.4c-2.5-3.6-4.3-7.5-6.4-11.3
				c-0.3-0.5-1-0.2-0.8,0.4c2.3,8.7,9.2,16.8,15.8,22.6c7,6.1,15.3,10.7,24.3,13C74.7,99.7,74.9,99.1,74.5,99L74.5,99z"/>
		</g>
	</g>
	<g>
		<g>
			<path class="st0" d="M36.2,66.1c4-1.3,5.6-5.7,6.6-9.4c1.6-5.7,2.6-12.1,1.9-18.1c-0.1-0.7-1-0.7-1.1,0
				c-0.6,8.6-0.2,20.8-7.8,26.6C35.4,65.6,35.6,66.3,36.2,66.1L36.2,66.1z"/>
		</g>
	</g>
	<g>
		<g>
			<path class="st0" d="M35,63.6c1.2-6.3,0.1-14.8-2.9-20.5c-0.2-0.4-0.9-0.1-0.8,0.3c0.8,3.1,1.9,6.1,2.4,9.3
				c0.6,3.6,0.4,7.1,0.5,10.7C34.2,64,34.9,64.1,35,63.6L35,63.6z"/>
		</g>
	</g>
	<g>
		<g>
			<path class="st0" d="M35.5,65.2c-7.6-0.5-12.8-5.6-15.8-12.1c-0.2-0.4-0.7-0.1-0.6,0.3c1.6,7.4,9.2,12.2,16.5,12.4
				C35.9,65.8,35.9,65.2,35.5,65.2L35.5,65.2z"/>
		</g>
	</g>
	<g>
		<g>
			<path class="st0" d="M35.4,65.6c-9.2,2-18.9,3.7-25.2-5c-0.3-0.4-1.2-0.2-1,0.4c4.1,10.4,18.2,8.3,26.4,5.4
				C36.2,66.3,36,65.5,35.4,65.6L35.4,65.6z"/>
		</g>
	</g>
	<g>
		<g>
			<path class="st0" d="M35,64.8c-4.2,6.6-9.8,9.9-17.4,11.3C17,76.1,17.2,77,17.7,77c7.5,0.2,15.1-5,18-11.8
				C35.9,64.7,35.3,64.4,35,64.8L35,64.8z"/>
		</g>
	</g>
</g>
<g>
	<g>
		<circle class="st0" cx="57.7" cy="123.5" r="3.1"/>
	</g>
	<g>
		<g>
			<path class="st0" d="M26.9,138.1c11.3-0.7,23.9-5.2,31.4-14.1c0.6-0.7-0.3-1.7-1-1c-4.3,3.7-8.3,7.1-13.5,9.6
				c-5.3,2.5-11,4-16.9,4.3C26.1,136.9,26.1,138.1,26.9,138.1L26.9,138.1z"/>
		</g>
	</g>
	<g>
		<g>
			<path class="st0" d="M13.2,120.2c7.6,0.1,11.2,11.4,12.9,17.4c0.2,0.6,1.1,0.5,1.1-0.2c0.2-4.5-2.6-9.2-4.9-12.9
				c-2.1-3.3-5-5.7-9.1-5.6C12.4,118.9,12.3,120.2,13.2,120.2L13.2,120.2z"/>
		</g>
	</g>
	<g>
		<g>
			<path class="st0" d="M11.1,129c3.2-0.2,6.3,0.4,9.1,2c2.9,1.7,4.5,4.1,6.4,6.7c0.3,0.4,1.1,0.2,0.9-0.4
				c-1.7-6.7-10.3-10.1-16.5-9.1C10.5,128.3,10.6,129,11.1,129L11.1,129z"/>
		</g>
	</g>
	<g>
		<g>
			<path class="st0" d="M25.4,137.1c-3.9,1.8-8,3.1-11.8,5.1c-0.6,0.3-0.2,1.2,0.4,1c4.2-0.9,8.2-3.1,12-5.1
				C26.7,137.8,26.1,136.7,25.4,137.1L25.4,137.1z"/>
		</g>
	</g>
	<g>
		<g>
			<path class="st0" d="M26,137.1c-0.4,5.9-1.9,10.8-7.7,13.2c-0.5,0.2-0.5,1.1,0.1,1c6.7-0.8,9.3-8.5,8.4-14.3
				C26.7,136.5,26,136.7,26,137.1L26,137.1z"/>
		</g>
	</g>
	<g>
		<g>
			<path class="st0" d="M27.4,156c5.6-5.7,2.6-16.8-2.5-21.8c-0.4-0.4-1.1,0.1-0.7,0.6c3.5,5.3,7.5,14.7,2.2,20.2
				C25.8,155.7,26.7,156.7,27.4,156L27.4,156z"/>
		</g>
	</g>
</g>
<g>
	<g>
		<circle class="st0" cx="101.6" cy="147.9" r="3.3"/>
	</g>
	<g>
		<g>
			<path class="st0" d="M58.1,168.1c12.1-12.1,26.5-21.5,44.3-19.8c0.3,0,0.4-0.5,0.1-0.6c-17.5-3.5-33.5,8.1-45,19.8
				C57.1,167.9,57.7,168.5,58.1,168.1L58.1,168.1z"/>
		</g>
	</g>
	<g>
		<g>
			<path class="st0" d="M68.9,158.5c-0.5,5.6-2.3,9.7-5.8,14.1c-0.3,0.3,0.1,0.8,0.5,0.5c4-3.5,6.3-9.3,5.8-14.6
				C69.3,158.2,68.9,158.2,68.9,158.5L68.9,158.5z"/>
		</g>
	</g>
	<g>
		<g>
			<path class="st0" d="M69.2,156.7c-5.1-3.3-12.2-3.6-17.6-0.8c-0.2,0.1-0.1,0.5,0.2,0.4c6.1-1.9,11.3-1.7,17.2,0.9
				C69.2,157.3,69.5,156.9,69.2,156.7L69.2,156.7z"/>
		</g>
	</g>
</g>
<g>
	<path class="st0" d="M462,219.8c-9.7-41.2-31.9-79.3-63.1-107.7c-15.5-14.3-33.1-26.2-52.1-35.2c-9.5-4.4-19.3-8.3-29.3-11.3
		c-2.5-0.8-5-1.4-7.6-2.1l-3.8-1l-3.8-0.8c-2.6-0.5-5.1-1.2-7.7-1.6l-7.7-1.3c-1.3-0.2-2.6-0.4-3.9-0.5l-3.9-0.4l-3.9-0.4
		c-1.3-0.1-2.6-0.2-3.9-0.3l-7.8-0.4l-7.8-0.1c-10.4,0-20.8,0.8-31.1,2.4c-10.3,1.6-20.4,3.9-30.3,7.1c-4.4,1.4-8.7,2.9-12.9,4.6
		c-0.6-1.2-1.4-2.3-2.3-3.4c3-2.4,6-4.7,9.1-7c4.9-3.7,9.9-7.2,15-10.7c2.6-1.8,5.3-3.6,7.9-5.4c2.5,4.5,8.4,7.3,13.4,6.2
		c0.5-0.1,0.4-1-0.1-1c-5.4,0.2-9.4-1.5-12.7-5.5c2.3-1.6,4.8-3,6.5-5.2c0.1-0.2,0-0.4-0.2-0.4c-2.7,0.7-4.9,2.4-7.3,3.8
		c-0.5-5.5,0.8-9.3,3.7-14.1c0.2-0.3-0.2-0.5-0.4-0.3c-3.6,3.2-5.2,9.1-4.4,13.9c-1.4-2.6-3.3-5-3.9-8c-1-4.6,0.2-8.9,2.6-12.8
		c0.2-0.3-0.2-0.6-0.4-0.3c-2.7,3.1-3.9,7.2-3.6,11.3c0.3,3.8,2.1,6.8,4,9.9c-1.4-0.5-2.8-0.8-4.1-1.6c-1.4-0.9-2.4-2.1-3.6-3.4
		c-0.1-0.2-0.4,0-0.4,0.2c1.2,3,5.1,6,8.4,5.9c0.1,0,0.2,0,0.3-0.1c0.1,0.2,0.2,0.3,0.3,0.5c-2.4,1.5-4.8,3-7.1,4.6
		c-5.6,3.7-11.2,7.4-16.7,11.4c-2.8,2-5.6,4.1-8.3,6.3c-1-0.8-2-1.5-3.2-2.1c2.7-2.8,5-6.2,7.2-9.1c2.3-2.9,4.5-6,7-8.9
		c1.9,1.6,5.3,1.4,7.1-0.2c0.1-0.1,0-0.2-0.1-0.2c-1.3,0.6-2.6,0.9-4.1,0.6c-0.9-0.2-1.6-0.6-2.3-1c1.2-1.4,2.5-2.7,3.8-3.9
		c0.4-0.4-0.2-0.9-0.6-0.6c-1.4,1.1-2.8,2.4-4,3.7c-0.6-1.2-1.2-2.4-1.2-3.8c0-1.4,0.6-2.5,1-3.8c0-0.1-0.1-0.1-0.1-0.1
		c-2.4,1.6-2.3,6.3-0.1,8c-0.1,0-0.1,0.1-0.1,0.2c-2.5,2.7-4.8,5.6-7.1,8.5c-2.7,3.3-5.4,6.6-8.2,9.8c-1.2-0.5-2.4-0.9-3.6-1.1
		c0.7-2.2,1.3-4.3,2-6.5c2.9-8.6,6.1-16.9,9.6-25.2c0.1,0,0.2,0,0.2,0c5.3,3,12.4,1.8,16.7-2.4c0.1-0.1-0.1-0.4-0.2-0.3
		c-4.6,3.5-9.8,4.1-15,2.3c4.4-1.5,8.3-6.1,9.9-9.9c0.1-0.2-0.3-0.4-0.4-0.2c-1.4,2.3-3,4.4-5.1,6.2c-1.8,1.4-3.8,2.2-5.7,3.3
		c1.6-3.8,3.2-7.6,4.9-11.4c0.1-0.2-0.2-0.4-0.3-0.2c-2,3.6-3.9,7.3-5.7,11.1c-0.2-0.2-0.4-0.4-0.6-0.7c-1.7-5-2.4-9.3-1-14.7
		c0.1-0.5-0.6-0.7-0.8-0.2c-1.4,3.7-1.8,8.3-0.6,12.3c-1.1-1.2-2-2.5-2.7-4.2c-1.4-3.4-1.5-7.1-0.2-10.5c0.1-0.3-0.3-0.4-0.4-0.2
		c-2.5,5.6-0.7,14.7,4.8,18.3c0.1,0.1,0.1,0.3,0.2,0.4c0.2,0.2,0.5,0.3,0.7,0.2c0.1,0,0.1,0.1,0.2,0.1c-3.7,7.9-7,16.1-10,24.4
		c-0.9,2.6-1.8,5.2-2.7,7.9c-0.7-0.1-1.5-0.1-2.2,0c-0.1-2.6-0.1-5.2,0-7.8c0.3-6,0.9-12.1,2.5-17.9c0.1-0.5-0.7-0.8-0.9-0.3
		c-0.5,1.4-0.9,2.8-1.2,4.2c-0.7-0.9-1.4-1.7-1.9-2.7c-0.5-1.1-0.6-2.2-1-3.3c0-0.1-0.2-0.1-0.2,0c-0.5,2,0.7,4.7,2.3,6.3
		c-0.5,0-1.1,0-1.6-0.1c-0.8-0.2-1.5-0.7-2-1.3c-0.1-0.2-0.4,0-0.3,0.2c0.8,1.2,2.9,2.6,4.3,1.6c0,0,0,0,0,0
		c0.1,0.1,0.2,0.2,0.3,0.2c-1,4.5-1.4,9.1-1.6,13.6c-0.1,2.4-0.3,5-0.3,7.6c-1,0.1-2,0.4-3,0.6c-0.6-1.5-1.1-3.1-1.5-4.7
		c-1.2-4.5-2-9.1-2.9-13.7c-0.8-4.4-1.8-8.9-3.3-13.1c7.5,0.2,12.6-9,12.9-15.7c0-0.2-0.4-0.3-0.4-0.1c-1.5,7.1-5.3,13.9-12.8,14.4
		c5.7-4,6.3-11.7,5.1-18c-0.1-0.3-0.6-0.2-0.5,0.1c0.7,6.6-0.5,12.2-5.3,16.7c-1.4-3.3-3.3-6.5-5.8-9.2c-0.2-0.2-0.5,0.1-0.4,0.3
		c1.8,3.1,3.2,6.2,4.4,9.3c-5.5-1.2-11.7-1.8-13.4-8.3c-0.1-0.3-0.5-0.2-0.4,0.1c1.3,6.2,7.9,9,13.8,9.4c0,0.2,0.1,0.4,0.3,0.5
		c0.1,0,0.2,0.1,0.3,0.1c0,0,0,0.1,0,0.1c-3.9,1.5-8,2.1-11.7-0.3c-0.3-0.2-0.6,0.2-0.3,0.4c3.6,3.2,8.3,2.5,12.4,1
		c1.8,5.8,2.9,11.8,4.1,18c0.8,4.6,1.8,9.1,3.4,13.4c-1.3,0.6-2.5,1.3-3.6,2.1c-2-1.7-4.1-3.5-6.1-5.2c-4.7-3.9-9.6-7.8-14.6-11.4
		c-1-0.7-2-1.5-3.1-2.2c3.1-3,5.5-7.1,5.5-11.4c0-4.7-3.1-8.8-6.6-11.7c-0.6-0.5-1.5,0.3-0.9,0.9c3.2,3,6.4,6.7,6.2,11.4
		c-0.1,3.2-1.6,5.8-3.4,8.4c1.7-6.6-3.5-14.9-10-16.4c-0.5-0.1-0.9,0.7-0.4,0.9c3.2,1.6,6,3.4,7.8,6.7c1.9,3.6,1.3,6.9,0.8,10.6
		c-3.9-2.7-7.9-5.2-12.3-6.8c-0.5-0.2-1,0.6-0.6,0.9c3.4,3,7.1,5.5,10.8,8c-3.1,1.5-5.7,1.7-9.5,0.9c-3.5-0.7-6.7-2.1-9.9-3.4
		c-0.6-0.3-1.1,0.8-0.5,1.1c4.2,2.4,15.4,6.8,20.3,2.8c-0.1,0.1-0.1,0.2-0.2,0.3c-1.6,2.7-3.6,4.4-6.8,5.2
		c-4.7,1.2-11.2-0.1-15.5-2.5c-0.4-0.2-1,0.3-0.7,0.7c1.1,1.6,4,1.9,5.7,2.4c3,0.8,6.1,1.4,9.2,0.9c2.3-0.3,4.5-1.2,6.2-2.6
		c1.5-1.3,2.4-2.9,3.3-4.6c0.8,0.6,1.6,1.1,2.3,1.7c5.2,3.9,10.3,8,15.3,12.2c1.7,1.4,3.3,2.9,5,4.3c-1.1,1.2-2.1,2.5-2.9,4
		c-3-1.6-6.2-2.9-9.2-4.2c-2.4-1-5-2.2-7.5-3.1c-0.3-1.2-1-2.5-1.6-3.5c-0.8-1.3-1.9-2.9-3.3-3.5c-0.1-0.1-0.3,0.1-0.2,0.2
		c0.7,1.4,1.9,2.5,2.7,3.8c0.5,0.8,0.8,1.7,1.2,2.6c-2.4-0.8-4.9-1.5-7.3-1.8c-0.4,0-0.5,0.5-0.2,0.7c2.1,1.1,4.4,2,6.7,2.9
		c-1.8,0.9-3.6,1.6-5.8,1.6c-0.3,0-0.3,0.4-0.1,0.5c2.4,0.4,5.4,0.1,7.4-1.5c2.8,1,5.7,2,8.4,3.3c2.7,1.2,5.4,2.6,8.1,4.1
		c-0.6,1.5-1,3-1.2,4.6c-8.2-1.3-16.5-2.1-24.7-2.8c-0.5,0-0.7,0.8-0.1,0.9c8.1,1.3,16.4,2.7,24.7,3.4c-0.1,1.4,0,2.9,0.3,4.2
		c-3.2,0.5-6.3,1-9.4,1.6c-5.8,1.1-11.8,2.1-17.7,3.4c0.1-3.9-1.2-8-4.3-10.6c-2-1.6-4.4-2.6-6.8-3.1c-1.7-0.4-4.7-1.2-6.5-0.7
		c-0.5,0.2-0.6,0.7-0.3,1c0,0,0.1,0.1,0.1,0.1c0.2,0.2,0.6,0.2,0.7,0c0,0,0,0,0.1-0.1c0.2-0.2,0.1-0.4,0-0.6
		c1.2,1.5,4.3,1.1,6.1,1.6c2.1,0.5,4.2,1.4,5.8,2.8c2.8,2.5,3.2,5.5,3.9,8.8c-5.3-5.3-14.1-6.6-20.9-3.9c-0.7,0.3-0.4,1.4,0.3,1.2
		c7.3-2.5,14-0.7,19.8,3.8c-3.9,1-7.7,2.1-11.4,3.6c-0.3,0.1-0.3,0.7,0.1,0.7c4.1-0.5,8.2-1.3,12.3-2.1c0,0,0,0,0,0
		c-1.2,3.3-2.5,6.2-5.2,8.6c-3,2.8-6.3,3.7-10.2,4.5c-0.7,0.1-0.5,1.1,0.2,1.1c6.5,0.4,13.9-5.3,15.7-11.9c0.5,2.7,0.8,5.5,0,8.4
		c-1.1,4.2-3.7,7.5-7.3,9.9c-0.7,0.5-0.1,1.7,0.7,1.2c7.5-4.9,10-14,7.1-22.1c5.6-1.2,11.2-2.6,16.8-3.5c3.5-0.6,7.1-1.2,10.7-1.7
		c0.4,1.5,1.1,2.9,1.9,4.2c-7,3.3-14.3,8.2-19.7,13.5c-0.4,0.4,0.1,1,0.6,0.7c3.5-2.4,6.8-5.1,10.3-7.5c3-2.1,6.2-3.9,9.3-5.9
		c0.9,1.4,2.1,2.7,3.4,3.9c-1.7,2.5-3.3,5-5,7.5c-1.8,2.7-3.9,5.5-5.7,8.3c-1.5-1.7-5.9,1.7-6.8,2.6c-0.2,0.2,0,0.4,0.2,0.4
		c1.9-0.5,4.1-2.8,6.1-2.2c-0.9,1.4-1.7,2.8-2.4,4.3c-0.2,0.5,0.4,1.1,0.8,0.6c1-1.1,1.9-2.4,2.8-3.6c0.2,0.6,0.5,1.1,0.5,1.8
		c0.1,0.9-0.2,1.8-0.4,2.6c-0.1,0.2,0.2,0.3,0.3,0.2c1.2-1.3,1.6-4.1,0.3-5.5c1.8-2.8,3.5-5.7,5.2-8.4c1.7-2.6,3.4-5.2,5-7.9
		c0.9,0.7,1.8,1.3,2.9,1.8c0.6,0.3,1.3,0.6,1.9,0.8c-0.5,1.6-1.1,3.1-1.5,4.7c-1.8,5.7-3.4,11.5-4.9,17.3c-0.3,1.1-0.6,2.3-0.9,3.5
		c-4.1-2-9.2-2.3-13.6-1.9c-2,0.2-9.3,0.9-9.3,3.7c0,0.7,1.2,0.9,1.3,0.2c0.2-1.2,5-2.1,6-2.2c2-0.4,4-0.6,6.1-0.5
		c3,0.1,5.7,0.8,8.4,1.6c-5.2-0.2-12.7,3.4-14.5,8.3c-0.2,0.5,0.5,0.8,0.9,0.5c2.2-1.8,3.7-4,6.4-5.4c2.6-1.4,5.1-1.8,7.9-2.3
		c-0.3,1.4-0.7,2.7-1,4.1c-0.8,3.5-2.2,7.2-1.9,10.8c0,0.3,0.4,0.4,0.6,0.2c1.7-2.7,2.4-6.2,3.2-9.3c0.4-1.6,0.9-3.2,1.3-4.8
		c2,1.8,3.8,3.5,5.3,5.8c1.7,2.6,2.4,5.4,3.5,8.1c0.3,0.6,1.3,0.6,1.3-0.2c-0.2-4.7-3.5-9.9-7.3-13.3c6.2,4.1,11.5,8.4,14.3,15.9
		c0.1,0.4,0.7,0.2,0.6-0.2c-1.8-8.5-9.3-15.3-17.2-18.5c0.3-1,0.5-2,0.8-2.9c1.6-5.8,3.3-11.6,5.1-17.3c0.5-1.7,1.1-3.4,1.7-5.1
		c2,0.4,4,0.5,6,0.3c0.2,3.3,0.7,6.6,0.8,10c0.1,3.9-0.3,7.8-0.2,11.7c0,0.5,0.9,0.7,1,0.1c1.2-7,1.2-15-0.6-21.9
		c1.4-0.2,2.7-0.6,4-1.1c2.6,4.4,5.2,8.9,7.4,13.6c1,2.2,1.8,4.4,2.7,6.6c-0.1,0.1-0.2,0.3-0.1,0.4c-5.4,2.2-8.6,8.7-7.5,14.3
		c0.1,0.4,0.8,0.3,0.7-0.1c-0.3-3.7,0.6-7.2,3.1-10c1.3-1.4,2.8-2.1,4.4-2.9c1.5,4.3,2.7,8.7,3.8,13.2c0.1,0.5,0.9,0.4,0.8-0.1
		c-0.3-4.7-1.6-9.3-3.3-13.8c0,0,0,0,0,0c4.1,2.5,7.1,5.7,9.6,9.9c0.2,0.3,0.7,0.1,0.6-0.2c-1.6-4-4.5-7.4-8.1-9.8
		c5.7,0.6,10.6,2.9,14.5,7.8c0.2,0.3,0.6-0.1,0.5-0.3c-3.5-5.4-10.4-9.4-17-8.7c-0.2-0.1-0.5-0.3-0.7-0.4c-0.7-1.9-1.5-3.7-2.3-5.5
		c-2.1-4.8-4.4-10-7.4-14.6c1.2-0.6,2.4-1.4,3.4-2.2c0.9,0.8,1.7,1.5,2.6,2.4c3.4,3.2,6.6,6.6,9.8,10.1c-0.2,0.8,0,1.6,0.1,2.4
		c0.2,1.1,0.6,2.2,1.1,3.2c0.1,0.1,0.3,0,0.2-0.1c-0.3-1-0.5-2.1-0.6-3.2c0-0.4,0-0.9,0.1-1.3c1.6,1.7,3.2,3.4,4.9,5.1
		c0.1,0.1,0.2,0,0.2-0.2c-1.6-1.9-3.2-3.9-4.8-5.8c1.6,0.1,2.7,0.5,4.1,1.2c0.2,0.1,0.5-0.2,0.3-0.4c-1.1-1.1-3-1.7-4.5-1.5
		c-0.1,0-0.2,0.1-0.3,0.2c-3.7-4.5-7.6-9-11.9-13.1c1.4-1.4,2.6-3,3.6-4.8c0.1-0.3,0.2-0.5,0.4-0.8c3.4,1.8,6.9,3.6,10.3,5.3
		c5.4,2.7,10.9,5.2,16.3,7.7c0.3,0.1,0.6,0.3,0.9,0.4c-4.8,5.7-7.6,15.6-0.3,20.4c0.3,0.2,0.6-0.2,0.4-0.5c-4.7-6-3.9-12.6,0.5-18.1
		c-0.6,4.6,1.9,10.1,5,12.7c0.5,0.4,1-0.2,0.6-0.6c-1.8-2.3-3.3-4.7-3.8-7.7c-0.3-1.8-0.1-3.4,0.1-5.1c1.5,0.7,3,1.4,4.5,2
		c2.3,1,4.8,2.6,7.3,2.4c0.2,0,0.3-0.2,0.2-0.4c-1.5-2.1-4.1-2.9-6.4-4.1c-1.4-0.7-2.8-1.4-4.2-2.1c3.1-5.4,8.6-4.5,14-5.1
		c0.9-0.1,0.9-1.5,0-1.4c-6,0.7-11.9-0.1-15.2,5.8c0,0,0,0,0,0c0-0.1,0-0.2-0.1-0.3c0-0.1,0.1-0.2,0.1-0.3c1-8.6,9.5-11.1,16.6-12.9
		c0.4-0.1,0.3-0.8-0.1-0.7c-8.1,0.4-16.9,4.7-18,13.5c-0.3-0.1-0.6-0.3-0.9-0.4c-5.4-2.6-10.8-5.2-16.2-7.9
		c-3.6-1.8-7.2-3.7-10.8-5.6c0.3-0.9,0.4-1.9,0.5-2.8c2.9,0.4,5.8,0.9,8.7,1.5c3.6,0.8,7.1,1.8,10.6,2.9c0.4,2.3,1.9,4.2,4,5.2
		c0.2,0.1,0.4-0.2,0.2-0.3c-1.7-1.1-2.7-2.7-3.2-4.5c1.9,0.6,3.9,1.3,5.9,1.9c0.4,0.1,0.7-0.5,0.3-0.7c-1.8-0.9-3.8-1.8-5.7-2.6
		c1.9-1.3,3.9-1.9,6.1-2.7c0.2-0.1,0.2-0.4-0.1-0.4c-2.6-0.3-5.3,1-7.3,2.6c-6.1-2.3-12.8-3.8-19.4-4.6c0-1.1,0-2.2-0.2-3.3
		c4.6,0,9.5-0.9,13.8-1.4c4.5-0.5,9.2-1.3,13.9-1.5c0.1,1.1,0.7,2.2,1.3,2.9c0.9,1.2,2.2,1.9,3.7,2.1c0.1,0,0.1-0.1,0-0.2
		c-1.2-0.4-2.3-1.2-3-2.3c-0.4-0.6-0.7-1.1-0.9-1.8c-0.1-0.3-0.1-0.5-0.1-0.8c1.8-0.1,3.7,0,5.5,0.1c0.5,0.1,0.6-0.8,0.1-0.8
		c-1.8-0.3-3.6-0.4-5.5-0.4c0.5-1.3,0.9-2.5,1.9-3.5c1-1,2.2-1.3,3.5-1.9c0.1,0,0.1-0.1,0-0.1c-2.7-0.8-6.2,2.7-6,5.4
		c-0.1,0-0.2,0-0.3,0.1c-4.3,0-8.7,0.6-12.9,1.1c-5.1,0.5-10.1,1-15.2,1.3c-0.3-1.2-0.8-2.4-1.3-3.5c4.3-1.4,8.6-2.7,13-3.9
		c9.9-2.7,20.1-4.5,30.3-5.7c20.4-2.3,41-1.6,61.1,2c40.2,7,77.8,26.4,107.1,54.3c7.4,6.9,14.1,14.5,20.3,22.5l2.3,3
		c0.8,1,1.6,2,2.3,3l4.3,6.2c1.4,2.1,2.7,4.3,4.1,6.4c1.4,2.1,2.6,4.3,3.9,6.5c2.6,4.3,4.8,8.9,7,13.4c2,4.6,4.2,9.2,5.9,13.9
		c1.9,4.7,3.4,9.5,5,14.3c1.3,4.9,2.8,9.7,3.8,14.6c8.9,39.3,6.1,81.2-8.4,118.7c-3.5,9.4-7.9,18.5-12.8,27.3
		c-4.8,8.8-10.5,17.2-16.6,25.1c-1.6,2-3,4-4.7,5.9l-4.9,5.7c-1.7,1.9-3.5,3.7-5.2,5.5c-1.7,1.9-3.5,3.6-5.4,5.3
		c-3.6,3.6-7.4,6.8-11.2,10.1c-4,3.1-7.8,6.3-12,9.2c-2,1.5-4.1,3-6.2,4.3c-2.1,1.4-4.2,2.8-6.4,4.1l-6.5,3.8
		c-2.2,1.3-4.5,2.4-6.7,3.6c-9,4.6-18.2,8.6-27.8,11.8c-9.6,3.2-19.3,5.8-29.3,7.5l-3.7,0.7l-3.8,0.5c-2.5,0.3-5,0.7-7.5,1l-7.6,0.7
		l-1.9,0.2l-1.9,0.1l-3.8,0.1c-40.5,1.5-81.4-9.2-116.1-30.7c-34.8-21.3-63.2-53.1-80.9-90.5c3.9,9.6,8.5,18.9,13.8,27.8
		c5.3,8.9,11.3,17.4,17.9,25.5c13.2,16.1,28.9,30.2,46.3,41.8c17.5,11.5,36.7,20.4,56.8,26.4c20.2,5.9,41.3,8.7,62.3,8.3
		c42.2-0.4,84.1-14.1,118.8-38.4c34.7-24.3,61.9-59.1,77-98.7C468.8,305.1,471.6,261,462,219.8z"/>
</g>
</svg>
