<svg id="Layer_1" data-name="Layer 1" xmlns="http://www.w3.org/2000/svg" viewBox="0 0 783.09 400.65"><defs><style>.cls-1{fill:#224a01;}</style></defs><path class="cls-1" d="M346.73,131.38l-3.38,4.5-2.25,2.25-4.5,2.47-.68,2s-1.8,1.8-1.57,2.93a21.83,21.83,0,0,1,.22,3.15s-3.15,2.92-4.5,3.82a21.9,21.9,0,0,0-3.15,2.93,13.16,13.16,0,0,1-1.8,1.8,13.48,13.48,0,0,0-2.7,3.15c-.9,1.35-1.8,2.25-2.25,2.93a14,14,0,0,0-2.48,4.72,25.62,25.62,0,0,1-2.48,5.41l-.45,1.12c.23,3.83.23,4.5.68,5.85s.9.9.45,3.83a37,37,0,0,1-.9,5.4c-.45,1.35-1.8,3.83-2.25,5s.9,3.15.9,3.15.67,2.93.22,3.61.23,2,.23,2a26.4,26.4,0,0,1,3.6,2.48c.9.9,2.48,2.25,2.7,2.92s2,3.83,2.25,4.51a37.49,37.49,0,0,0,2.48,3.82c.45.68,2.7,3.15,2.7,3.15a31.39,31.39,0,0,1,3.6,3.15c.68.9,2.7,1.35,3.38,2s2.25.45,3.15,1.12,2.7-.45,3.6,0,3.38-.45,4.05-.9,2.25-2,3.38-1.35,1.8,0,2.7.23,2.25-.9,3.15-.9,3.15-.9,3.82-.9,2.93-1.35,3.83-1.35,2-.9,3.15-.45.68-.9,2.7-.23,2.7,0,3.38.68,1.58,0,2.25.9,1.8,1.57,2,2.47,1.57,1.8,1.57,1.8l1.35.23s1.8-1.35,2.25-.45,2.48.68,2.48.68l2,2.25.68.9s1.35,3.6,1.13,4.95-.23,4.27-.9,5-1.13,3.6-1.13,3.6-.9.9,1.13,2.7a31.39,31.39,0,0,1,4.05,4.28c.67.9,2.47,3.37,2.7,5a15.36,15.36,0,0,0,1.57,4.5c.91,2,2,2.25,2.25,4.5s.68,2.25.46,3.83-.9,1.8-.23,2.92,1.57,3.16,1.35,3.83-.67,3.6-.67,3.6l-.45,1.35-2,3.83-1.35,2c-.45,1.57-1.35,3.15-1.13,5.4s-1.12,2.25.68,4.5,2.7,4.73,3.82,6.75a18,18,0,0,1,2,5.4c.23,1.35,1.13,1.8,1.58,3.6a15.13,15.13,0,0,1,.67,3.83c0,1.13-.23,4.05.23,4.73s.67,2.7.9,3.6-.68,1.13.67,2.7,2.25,2.48,3.15,3.6a5.47,5.47,0,0,1,1.35,2.25c.68,1.58,1.58,2.48,1.8,3.83s.45,4.73,1.13,6.3,1.57,3.15,1.57,3.15,2.48,1.58,3.38,1.35,2.7-2.25,4.05-1.57,2.48,0,3.6,0,2.26-1.35,3.38-1.35,2.7-1.8,3.6-1.35,2-.45,3.15-1.58,1.8-2,3.83-3.82,1.8-1.81,3.15-2.93,2.7-3.6,4.28-4,2-2,2.47-3.15a10.41,10.41,0,0,1,1.35-2.71c.68-.9.23.23,1.36-2.7s2.47-4.05,3.6-4.72,1.8-2,2.47-2.25,1.8.67,1.35-1.35,0-5-.44-5.63-1.13,1.57-.91-1.8,2.71-6.76,2.71-6.76,3.37-4.27,4.5-4.95,1.35-1.35,2.92-2.25,5-3.15,5-4.27,1.35-4.06,1.35-4.73a40.57,40.57,0,0,0-.45-5.18c-.45-3.83.45-2.92-.9-6.53s-1.58-8.1-2.48-9.22-.45-4.06-.45-5,1.58-3.15,2.25-4.05,3.6-4.5,3.6-4.5,4.5-5.18,6.08-7.65a27.26,27.26,0,0,1,4.28-5.63,28.13,28.13,0,0,0,5.4-5.18c1.57-2.25,4.72-6.52,4.95-7.2a20.6,20.6,0,0,1,2-2.92s2.48-2.93,2.93-4.51,2.7-10.35,2.25-9.9-3.15.9-4.05,1.13,1.35,1.12-5.18.67-9.9.68-9.9.68c-2-.45-3.6,1.8-4.28-1.35s-1.12-5-2.47-7.21-2.25-3.15-4.28-6.07-1.8-1.58-3.6-3.83-2.25-1.58-3.38-4.5-2-1.8-3.37-5.85-2.25-4.51-2.93-6.76-1.57-2.92-2-4.95-5.62-12.38-6.3-13.05a16.62,16.62,0,0,1-1.57-3.6c.22.67,3.37,2.92,3.37,2.92a12,12,0,0,1,2.48-.67c.68,0,3.38,2.47,3.38,3.37s4.72,5.18,5.85,8.33,2.48,5.4,2.7,6.3a42.25,42.25,0,0,0,3.38,5.86c.9,1.35,3.82,4.05,4.27,5.4s4.73,5.85,4.73,8.78,2,6.75,2.25,7.65,4.28,2,4.28,2l5.4-1.35s8.1-5.17,9-5.17,8.11-3.38,8.11-3.38,2.92-2.7,5-4.28a17.36,17.36,0,0,0,4.72-5.85c.45-1.35,1.35-1.57,3.15-3.6s4.28-4,2.71-5.4-2.48-.9-4.73-3.15-2-1.8-3.6-4.73.22-6.3-3.16-2.93-2,4.28-5.4,5-4.72,2.92-6.3.67-3.15-.9-4-4.28-1.58-3.6-1.8-5,0-1.35-1.8-4.72-.45-8.56.67-5.63,2.93,3.37,5.86,5.4,4.27,3.6,7,3.83,4.95,0,5.4.45.9-.23,2,.22,1.57-.67,2,1.13,2.92,2,4.05,3.15,1.12.67,4,1.12a56.37,56.37,0,0,0,7,.45l4.27-.22,5,.45s3.6,2,4.5,2,1.12,2.48,3.37,3.83,2.7,1.57,4,3.15,1.13,2.25,2.93,3.83,4.73-.23,5.18-.9,2.7-1.8,2.25,0,2.25,1.12,1.57,5.4-1.12,3.15,0,6.08,6.08,11.93,6.31,14.63,1.57,1.8,1.8,4.28,1.57,3.37,1.57,5.17,1.58,2.25,1.8,3.6,2.71.23,3.38,0a31,31,0,0,0,3.83-3.15s1.35-.45,1.12-2.7,0-1.8,0-5.18-1.35-3.37-.67-6.75,2.47-5.4,2.92-7,2.25-4.28,3.15-4.51,5.86-2.7,7-4.27a47.21,47.21,0,0,1,4.73-5.18c1.8-1.8,4.95-4.05,5.63-3.38s.45.45,1.57.45,3.15.91,4.73,1.13,4.73,4.05,5.4,6.08.23,1.57,2.7,4.5,4.73,1.12,4.73,4.73,0,3.37,1.13,4.72,2.47-2.47,3.82-2,1.58-.45,2.7,3.15,1.8,3.6,2,7.2-.23.23-.23,3.15-.22,3.15.23,5.85,2,3.61,1.8,4.06c0,0,1.35-3.83.9-6.53s0-6.53,1.12-7.65,2.25-2.25,3.15.67,1.35.68,3.38,4.05,3.83,2.7,4.05,4.28,1.35,1.8,2.93,3.15,2.92-.22,4.72-1.57,6.76-6.31,7-8.33,2.25-1.58-1.35-6.75-3.6-7-7.43-10.13-6.07-3.38-3.15-7.43,4.28-6.75,6.08-5.63,4.95.9,4.95,5.4-.9,9.46,2.25,4.06,4.73-8.56,3.83-7.66,2-1.8,2-1.8.23-2,4.06-2.92a24.76,24.76,0,0,0,6.3-2c1.35-.67,5.18-5.18,5.85-7.2s2.48-5.63,2-7.2-2.7-9.23-3.15-9-.23.23-3.15-2.92-5-5.4-5.41-6.76-1.57-1.57-.22-3.37,2-1.58,2.25-3.15,2-2.93-1.35-1.8-.9.45-3.83.22-10.58,1.58-6.75-3.15,5-7.65,5.63-7.65,4.05-3.83,4.27-.23,1.58,2.7,1.8,5,4.73-2.48,4.73-2.48a7,7,0,0,1,2.7,1.58c1.13,1.12,1.13,4.72,1.13,4.72s-.9-1.12,1.57.68,5.18.9,5.18,4.72,0,4.06,1.57,5a3.78,3.78,0,0,0,4.51-.68c1.35-1.12,3.6-5.18,3.6-5.18s.22-1.57-3.38-3.82a70.75,70.75,0,0,1-7.2-5c-1.35-1.13-.9-4.5.45-5.86s2-2,1.57-3.82.68-3.15,4.06-2.93,4-.22,4-.22.67.45.67-.9,4.28-7.66,3.15-7.66.23-1.57-.45-4,2.25-6.3-.22-8.1a13.76,13.76,0,0,1-4.73-5.4c-1.57-2.7-1.35-3.15-7.2-3.83s-8.55,1.35-9.9-.45-2,2.7-2.93-2.7a13.82,13.82,0,0,1,1.35-9s3.6-2.25,4.5-3.82,4.5-2.25,7.43-1.13,7.2.9,10.81,1.58,3.37,2.93,5.17,0,0-4.28,1.35-5.85,2.93-4,4.05-2.48,3.38,3.15,5.18,1.13,2.48-2.25,2.48-2.25l.9.9s2-1.13,2,.89,2,4.28.9,5.86-2.7,1.35-2.7,5.17,0,3.16,2.48,6.31,4,.45,4.5,3.82.9,2.71,3.38,5,2,2.25,3.82,3.6,2.7,2.7,2.7.45a42.26,42.26,0,0,0,0-5.4c-.22-2,1.81-3.61.45-7s-.22-3.15-2.92-5.63-4.51.45-5.4-3.15,4.27-5.18,5.62-5.63,3.38-3.15,3.83-1.35S741.3,65,747.83,58s3.6-4,3.6-4,3.38-.45,4.05,0,2.48-2,1.8-1.8-7.2-3.6-7.2-3.6l-4.73-2.7s1.58-1.13,2.71-.9,1.35-2.25,2.47-2.48,8.78,1.58,10.36,2.48,7.2,1.13,6.52.68-4.27-3.16-4.5-4.06-8.1-2.7-10.58-2.47-4.72.9-6.75.22-5-2.47-6.53-2.47S717.67,33,716.77,33.24s-2.25,4.51-2.93,3.83-1.8-.68-5-1.58a69.55,69.55,0,0,0-13-2c-5.63-.45-9.45.45-11-1.35S679.86,31,676,30.77s-8.33,0-10.35,0a76.15,76.15,0,0,1-7.88-.45c-1.13-.23-2.48-1.8-3.83-2s-1.12-.67-3.82-1.12-2.48-3.38-3.38-.9-.45,1.8-1.8,2.7-2.7,2.7-3.6,2.7-4.5.22-5.18-.23a7,7,0,0,0-4.05-.9,21.16,21.16,0,0,1-5.18-.22c-2.92-.45-5.17-.23-7.88-1.58s-2.7-2.25-5-2-2.25-.45-5.4-.45-7,1.8-9,2a23.33,23.33,0,0,1-8.1-.9c-1.58-.67-2-2.25-7.88-1.57s-9.23.67-8.11-1.13,2.48-3.6,3.15-3.83,2.25-1.35,1.13-1.8A13.52,13.52,0,0,0,575,17.71c-2.7-.22-2.48.9-6.53.45s2.25-1.57-6.08-1.35a88.81,88.81,0,0,0-11.25.9c-.9,0-2-1.8-4.28.9s-5.4,4.28-9.9,4.5-4.73-.45-9,1.13-7-.45-6.08,3.15,2,5,2,5.63-2,5.17-4.51,2.47-7-13.28-5-6.07,6.53,9.68,2.25,10.8-3.83-.45-4.5-.9,0-3.6-.23-5.4a6,6,0,0,0-1.57-3.83c-.9-.9-.68-2.25-2.48-2.7S507.67,26,504.74,26s-5.4-1.8-4.72,2.25,1.35,1.35,3.15,5.18,5.17,1.12,2.7,3.82-9,1.8-10.58.68-1.13.45-4.05-1.58-2-3.6-5.4-2-4.51,4.5-5.86,3.37-4.5,1.58-5.62.23-5.63-1.35-6.53,0-3.6,1.12-7.43,2.93-2.7.22-7.43,4.05-7.43,7-9,4.5S433.84,42.7,437.22,42s4.95-2,6.75-.45,4.73,1.13,5.18,0,2.47-2.25-.23-3.6-2.93-.45-7.2-2,0-1.12-5.85-2a94.33,94.33,0,0,1-9.91-1.8c-1.57-.45-3.82,0-6.07-.23s-3.83-.67-5.86-.45-3.15-.22-5.85,1.8-4.73,2.93-6.53,4.5-6.52,4.73-7.87,5.86-6.08,4.72-6.53,6.07.45,2.48-1.35,3.38a15.21,15.21,0,0,1-5,1.12c-1.35.23,0-2-1.35.23s-.9,10.35.23,9.23.45-4.73,5.4-1.35,8.1,2.92,7.88,6.07,3.37,2.93,3.82,3.61,2.71-.9,2.71-.9,4.95-3.16,4.95-4.73,3.15-5.18,3.15-5.18a4.15,4.15,0,0,1-2.25-3.37c0-2.25.67-2.93,1.12-5.18s-2.47,0,4.28-4.28,7.2-1.35,7.2-1.35.9.9-.22,2.25-3.16,5-3.61,5.4,2,4.06,3.15,4.06,3.38-.9,4.73-.68,3.6-.67,4.28-.22,2.25,1.8,1.12,2.92-3.6,2.48-5.4,2-4.5-3.6-2.92.9-.23,5.63-1.58,5.4-4.28-2.47-3.83.9-2.92,5.63-3.6,5.63a17.1,17.1,0,0,1-2-.23s-2-.22-3.15-.22a7,7,0,0,0-4.06,2c-.67.9-1.57.23-2.7.23s0-1.35-2.25-1.8-3.6-.9-4.95,0-3.37,1.35-4.28.67.46-2.25-1.35-1.35-3.15,3.38-3.82,3.6,2,0-.68.23a16.48,16.48,0,0,0-5.17,1.35c-1.36.45.45,3.15-2,4s-.67-1.12-3.15.9-2.93,3.83-3.83,4-.67.68-2.7.9a14.33,14.33,0,0,0-2.93.68c-1.12.22.23.67-2.25.22s-4.27.45-3.82,1.35,8.78,3.38,2.47,3.15-4.27.9-2.92,1.8,2,1.8,2.7,2,1.8,2.93,1.8,2.93,1.8-.23.67,1.35.45,2-.67,4-1.13.67-2,1.12-2.25,2-4.72.68a15.91,15.91,0,0,0-7.21-2.25c-2.92-.23-.9-.68-2.92.9a5.47,5.47,0,0,0-2.25,5.4c.22,2,.45,4.73-.23,6.08s-.67,2.7-.22,4.73a4.92,4.92,0,0,0,1.8,2.92s3.15.45,3.82.68,2-.45,3.83.67,3.6,1.58,4.73.23,5.62-2.93,7-4.28,2.25-1.8,1.57-3.15,1.35-4.73,2.48-5.4a19,19,0,0,1,3.6-1.35l2.7-4s2.25-2.48,3.37-2.25,7.43,2.47,7-.45.45-3.83,1.13-2.71,2.47.68,2.47.68a1.42,1.42,0,0,1,1.58.23c.67.67,1.57,3.6,2.92,4.27s2.48,1.35,3.38,1.8,1.8,0,3.6,1.58,3.6,2.47,3.83,3.15a11.28,11.28,0,0,0,1.8,2.25s1.58.45,1.13,1.35-2.7,3.6-3.83,4.05-4-.45-2.93.45,2.7,2,3.38,1.35S404.8,121,404.8,121s-.22.23,0-1.12,0-2.93,1.13-2.25,1.8,1.57,2.25.67.9-.45-.23-1.12-3.82-4.5-5.18-4.73-4.72-2.47-4.72-2.47-.68-.68-2.25-2.48-2-1.35-2.48-2.93-1.8-3.6.68-3.15,4.05,2,6.3,3.38,1.8,1.8,3.82,3.15,2.26,2.7,3.83,2.48a2.94,2.94,0,0,1,3.38,2.92c0,2,.45,4.28.9,4.73s1.8,1.35,2.25,2.25a34.71,34.71,0,0,0,2,4.05,28.75,28.75,0,0,1,2,2.7c.67,1.13.9-.22,1.57.23s1.58.22,1.58-.68a23.8,23.8,0,0,1,.22-2.47s3.16-.9,2.26-1.35-3.61-3.16-3.38-4.06,0-2.7,1.12-2.47,2.26,2.25,4.73.45,5.4-2.7,4.5,0,.23,3.15,0,6.08.9,2,2.48,3.6a8.83,8.83,0,0,0,3.83,2.25c1.12.45,2.92.22,4.72.45s2.93-.68,4.51-.23,5.17-.22,5.85.23,3.37-.9,3.6.67,1.12-.22.45,3.38a43.13,43.13,0,0,1-1.58,6.08c-2.47,4.72-3.37,5.85-4.5,6.08s-1.8.9-3.82.67-4.51,0-7.43-.67-8.33.67-10.58-.68-5.4-.23-6.75-1.8-3.6-1.35-4.51-2.25-1.35-3.38-1.35.22-2,3.83-2.47,5.63.67.9-1.8.68-3.15,1.12-6.76-1.58-5.4-2.7-7.2-3.83-3.6,2-5.4-1.57-4.28-.68-4.5-3.6a13.05,13.05,0,0,1,.22-4.5c.23-1.8,2.7-3.38,1.58-4.05s-.23-1.81-1.8-1.13-3.83.9-5.63,1.58,4,0-4.73.67-11.25,1.58-11.25,1.58-.68-.45-1.8.45-2.7,2.25-4.28,1.57a5.66,5.66,0,0,0-3.82-.22c-1.35.22-2.25-1.13-3.83,0s-3.38,1.57-4.05,1.12a10.67,10.67,0,0,1-1.8-2.25Z" transform="translate(0 0)"/><path class="cls-1" d="M497.3,279.48a26.58,26.58,0,0,1-3.15,6.08l-4.5,2.25a9.19,9.19,0,0,1-2.47,1.57,26.62,26.62,0,0,0-3.16,1.35s-2-.45-1.35,1.58a12.27,12.27,0,0,1,.68,5.18,15.69,15.69,0,0,0-.23,3.82c0,1.8-.67,4.05-1.8,4.5s-2.25.9-2,2.48.22,6.3.22,6.3l2.93,4.5a4.76,4.76,0,0,1,2.7-.67,6.6,6.6,0,0,0,3.6-1.57s2,.44,1.8-2,.9-5.4.68-6.08,2-3.6,2-4.27,2.26-3.83,2.26-5,1.57-2.92,1.8-4.27.45-4.5.9-5.4a6,6,0,0,0,.67-2.7v-2.71l-1.58-4.95Z" transform="translate(0 0)"/><path class="cls-1" d="M673.54,309.87c-.67.89-1.12,10.58-1.57,11.7s-1.35,7-.9,8.33,1.12,6.3.67,7.88.23,6.52-.9,6.3-1.57.22-1.57.9,1.57,2,1.57,2a30.06,30.06,0,0,0,3.83-.22c1.13-.23,3.38-1.35,5.18-1.35s2.93-1.35,4.5-1.35,4.95-1.13,5.85-.68,2.25-2.7,3.83-2,5-1.58,6.53-1.58,2.25-2.48,4.05-2,5.18-.89,6.75-.22,4-2.25,5.18,0,4.5,3.15,4.5,4.28-.23,3.6-.23,3.6l2.7-.23s4.28-2.7,5-2.7,2.25-2.25,2.25-1.12-1.35,3.6-1.8,4.72a3.13,3.13,0,0,0,.44,2.48s2.26,1.12,1.36,3.15.22,1.58,0,3.15,0,.9.89,1.8,2.48,2.48,3.83,2.25,1.8-1.57,2.93-.9,3.37.23,4,1.13-4.28,3.15,4.28-.68,9.45-4.72,10.57-6.08,2.48-2.7,3.38-3.6a11.6,11.6,0,0,1,2.93-2.7c2.7-2,2.7-1.12,5.18-5a39.47,39.47,0,0,1,4.72-5.85,4.71,4.71,0,0,0,1.58-3.6c.22-2.7,2-5.18,2-6.08s.68-2.25.45-3.83.9-3.82-.45-6.07.68-3.15-1.35-4.06-3.37-.44-3.82-2-2.26-1.35-2.93-5.63-3.38-4.73-3.38-4.73-2.7-1.12-2-1.57.9-3.6.67-4.5-.22-2.93-.9-4.28-1.12-3.15-1.8-4.73-1.8-2-2.25-3.82a8.69,8.69,0,0,0-1.35-2.93c-.22-.45-.68-2.7-1.12-.22s-1.36,7.2-1.36,7.2-1.8,3.83-2.47,4.95-1.35,4.05-2.48,3.83-1.8,1.12-2.7.9-2.25.22-2.92-.45-2.48-2.48-3.38-2.7-1.58-2-2.25-2-1.8-1.58-1.58-2.48.45-2.92.68-3.82a15.33,15.33,0,0,1,1.57-2.93s0-1.35-1.12-1.35a32.09,32.09,0,0,1-3.83-.22c-2.47-.23-3.15-.45-4-.45s.9-.45-1.58.22-3.6,2.48-5.17,4.05-.23,1.13-1.58,1.58-1.12-1.13-2,1.35.45,3.15-.23,3.6-5.4-1.57-5.4-1.57,1.13-.23.22-1.36-1.8-2.7-3.14-2a8.92,8.92,0,0,0-3.38,2.25c-.9,1.13-.9,2-1.58,2.93s-2.47.9-2.7,1.8-.22,3.15-.9,3.37-.9-.9-1.57-1.12-.45-2-.9-.9-.9.9-1.58,2.7-.9,3.38-1.57,3.6,0,.45-2,1.58-2.48,1.12-5.4,2.47-2.25,1.35-4.28,1.58-2.47.9-3.82,1.12a5.56,5.56,0,0,0-3.61,1.8,7,7,0,0,1-3.37,2,4.93,4.93,0,0,0-1.81,1.13Z" transform="translate(0 0)"/><path class="cls-1" d="M686.82,221c-.9,1.35-3.82,5.4-5,5.63s-2.25,1.35-3.15,1.12-2.93,0-3.6,2.93-1.8,4.5-2.48,4.27,1.13,4.28-2.7,2.48-2.47,1.58-2.92,2.48.67,3.37.9,4.27a14,14,0,0,0,1.8,3.83c.9,1.35,1.57,2.92,3.15,2.48s6.52,0,6.52,0a11.22,11.22,0,0,0,2.93.67c1.13,0,1.35-.45,2-.45s2-2.25,1.8-2.47-.9-.91.45-2.26,2.92-1.8,3.15-3.37-.45-1.58.22-2.48,2.25-.67,1.81-1.58.44-.67-.46-2.47-2-2.48-1.12-4.73,1.8-2.7,1.58-4.05,1.12-1.8-.46-3.38a9,9,0,0,0-3.37-2.47l-1.13-.45Z" transform="translate(0 0)"/><path class="cls-1" d="M730.94,243.47c.9-.23,4-2.48,4.28,1.57s.45,2.93,1.8,5.18,2.25,2.93,3.82,1.8,3.38-1.13,3.83-3.15.45-2,1.8-2,1.8-.22,2.48.68,1.12,0,4,1.58,5.4,1.12,7.2,2.7,2.7,1.35,5.18,2.25,1.35-.45,3.6,2,1.35,3.15,2.48,4.28,2-.9,1.57,1.8-3.6,0,1.13,3.82,5.4,4.51,7,5.63,2.71,2.48,1.36,2.48-5.63,0-6.08-.68-2.48-1.12-3.83-2.7-4.27-2.7-5-4.05a2.79,2.79,0,0,0-2.7-1.8c-1.12,0-2.25,1.35-3.83,2.93s-.89-.9-2.92-.23a6.15,6.15,0,0,1-5.4-1.13c-1.13-.9-.9-2.25-2.7-1.57s-2.93.22-2.25-1.13a5.29,5.29,0,0,0,.22-3.15s.68-2.25-.9-2.7-1.57-2-3.15-2.47a39.81,39.81,0,0,1-4-1.58,3.56,3.56,0,0,1-.9-.22,23.37,23.37,0,0,0-2.48-.68c-1.8-.45-3.15,0-4.05-1.13a3.3,3.3,0,0,1-.45-2.7s3.6.45,0-2.25l-3.6-2.7a.48.48,0,0,0,.22-.67c-.22-.46,2.25,0,2.25,0Z" transform="translate(0 0)"/><path class="cls-1" d="M629.65,224.78a3.69,3.69,0,0,0,2.93.9c1.8-.22,3.15,3.6,4.27,4.95a14.65,14.65,0,0,0,4.28,3.6c2.47,1.58,2.25-1.35,5.63,3.38s1.8,1.8,3.37,4.73,2.48,4.5,3.38,5.18a7.56,7.56,0,0,1,1.8,3.15c.22.67,1.8,2.7,1.8,3.37a5.11,5.11,0,0,1-.9,4,5,5,0,0,1-2.48,1.8s-2.7-1.35-3.6-2.7a60.07,60.07,0,0,1-3.6-5.17c-1.58-2.7-3.38-5.63-4.28-7a44.56,44.56,0,0,1-2.92-4c-.68-1.35-2.48-5.4-3.38-5.86s-1.12-1.8-2.7-3.37-1.35-2.93-2-3.83S629,225,629,225l.68-.22Z" transform="translate(0 0)"/><path class="cls-1" d="M191.87,400.35c-1.58-.9-5-2.48-6.08-3.38s-4.5-5.85-4.5-5.85l-2.48-4.73s-2.92-3.6-2.25-4.95,2-2.25,2-2.92,1.35-2.48.22-3.15-1.12-.9-1.8-2.93-.67-3.83-1.57-4.28-1.58-3.37-2.48-3.6-1.8-1.8-1.8-1.8l-1.35-18.23s-.45-8.33-.9-10.13.67-5.63-.45-9,.22-7.43-.45-8.78.45-5.18-.23-8.78,2.7-8.1,0-9.45-.67-3.38-2.92-3.38-3.83-1.12-5.85-2.7-5.86-4.5-7-5.63-4.73-4.05-5.85-4.95-2.26-4.73-3.16-5.85-1.35-4.5-2.7-6.53-3.15-5.4-3.6-6.07-5.4-6.53-5.4-6.53l.45-3.6s3.38-2,2.92-2.7.23-1.36-1.35-2.7a3.35,3.35,0,0,1,0-5c1.35-1.12,3.38-4.72,3.38-4.72l3.38-5.63s2.7-2.93,2.7-4.95,3.82-3.38,1.57-5.18-1.12-3.38-1.8-4.73-.22-2.25,1.8-3.6,5.63-6.3,5.63-6.3a29,29,0,0,1,3.38-.68c.67,0,1.8-7.2,3.82-2.47s2.7,2.25,2,5.62.9,2.71,1.8,1.81-.45.67,1.35-3.38,1.13-5.4,2.25-4.28a7,7,0,0,0,3.6,2c2,.67,2.7.45,3.38,1.8s.45-.45,4.27.22,9.23-1.35,8.56.9-2-.22,1.12,2.25,3.6,2.93,5.4,3.38,3.38.23,6.08,2.93,3.38,2.92,4.05,4.27,1.8.45,2.93,1.8,2.7,1.36,4.27,1.36,0-1.36,2.48.45,4.28,2,5.4,5.62,3.38,3.38,1.58,7-5.4,5.18-3.83,5,4.5-1.57,5.4-1.35,1.35-.67,2.7,0,1.58-.9,1.35.68-.22,0-.22,1.57-.45-1.57,2.25-.9,1.12-1.35,4.28,1.58,3.15,2,4.27,3.6,2.25-.9,2.93-.23,2.7.23,4.73.68.67-1.35,3.82.67,6.3,1.35,7,3.16,2.48,1.12,3.38,2.25,1.35-.45,2.25,1.12,3.6,1.13,3.15,2.7.67.68.22,2.93-2,5.85-3.37,6.75-1.35,2-2.25,3.15-.68-1.12-1.81,2-.9,3.6-1.8,6.52-.22,0-.9,2.93-.22,4.73-.9,8.1-.45,3.38-.89,5.86,1.12-1.13-.91,4-2.25,5-2.92,7.2.22.45-2.25,1.8-1.13.9-4,1.8-6.53,1.8-7.66,2-5.62,1.57-4.27,4.27,1.35,3.16,0,6.53-3.38,4.5-3.38,6.08-.9,3.15-1.12,4.27,2-1.12-.68,2.26-2.92,2.47-3.83,4.5,0,.45-.9,2a6,6,0,0,1-3.15,2.25s.23,1.13-.67.68-.68.22-4-.68-3.83-3.15-4.28-1.57.23,2.47,2.25,4.05,5.4,2,4.5,3.6a16.45,16.45,0,0,1-1.57,2.48c-.68.9.9.22-.68.9s-2.47,3.6-3.15,3.6-1.13,1.13-2,.67-3.15-2-3.6-1.12-1.35-1.13-1.12,2,.67,5-.45,5.63-3.83,0-3.83,0l-.45-1.12-1.57.45s-.68,2.7.45,3.15.9.9,2,2.25.45,3.82.45,3.82,0,.68-1.12,1.8a6.75,6.75,0,0,0-1.8,2.71c-.23.67-1.58,3.6.45,3.37s3.6-1.35,3.6,2.25.9,2.7-.23,5.18-2,2.7-2.25,4.95.23,2.48.68,3.83,1.57.67.45,1.35-4.5,0-4.5,0Z" transform="translate(0 0)"/><path class="cls-1" d="M133.8,217.13l-1.58-2.25a3.1,3.1,0,0,0-1.8-1.57c-1.13-.23-3.6-3.16-3.6-3.16a3.32,3.32,0,0,1-1.13-2.47c0-1.58-.9-4.05-.22-6.75a21.87,21.87,0,0,0,.67-7c-.22-.9,1.13-1.13-.45-2s-4.72-1.12-6.75-1.12a15.91,15.91,0,0,0-5,.9c-.45.22,2.47-6.75,2.92-7.88a64.33,64.33,0,0,0,2.48-6.75c0-.68.68-.9-.67-1.8s-3.61-1.35-5-.68-1.12-.9-2.25,1.8-2.25,5.63-3.6,6.08-4,1.8-4,1.8-3.38-.22-4.5-.45-5.85-2.7-6.75-4.27A17,17,0,0,1,91.26,173c0-1.58,2.47-6.3,2.25-7.43s2.47-5.62,2.25-6.3.45-2.93,1.12-3.83,4.05-2,5-2.92a10.33,10.33,0,0,1,4.06-2.48,16.6,16.6,0,0,1,4-.9c1.12,0,4-2.47,4.5,0s2.48,1.58,3.6,1.8,1.35,1.35,3.15-1.57,3.6-3.83,3.6-3.16,2.93-.22,3.38.46,1.35-.46,2.92.9,3.83,1.57,3.61,2.25.9.67.9,1.35.9-1.58.9,2.47a17.2,17.2,0,0,0,1.12,6.53s1.58,3.38,2.25,2.7,2-2.47,2-2.47,2.25-1.36.67-6.08-.45-6.08-.9-7.66-.45-2.47,2.25-4.5,9.23-6.52,10.81-7.42,5.17-3.38,5.17-3.38a3.28,3.28,0,0,0,1.58-2.48c.22-1.8,4.5-5,4.73-5.85s3.15-3.15,3.15-3.15,3.15-1.8,2.92-2.92,4.05-3.15,4.73-3.15,4.28,1.12,4.28-.91,0-2.47,2.25-4.27,5.17-4.5,6.3-4.5,4.95-2,6.53-2.48,6.52-2.7,2,0-1.57,1.13-2.47,3.38-1.58,5.17,2.7,1.8,4-4.06,5.62-4.28.45.68,3.83-.45,3.6-1.58,3.6-1.58,1.58-1.35.68-2,.9-1.58-2.48-.23-3.15,1.58-5.4.9-5.63-.45-3.15-2.7,5.63-2.92,3.6-3.82-7.2.22-7.88.45-2.25-.23-3.6,0-.9-1.8,0-2.25a38.2,38.2,0,0,1,7.43-2.71c3.6-.9,12.38-1.12,14.4-1.12s4.73.45,6.31-.68,4.72-2.92,5.17-3.82A9.91,9.91,0,0,1,229,80.29s2-2,.9-2.93-2.25-2.93-3.15-2.48-.22,3.16-2,.23-1.58-3.38-2.48-4-1.8-.23-1.12-3.38a14,14,0,0,0,.45-4.5s.67-2.7,0-2.92-1.13-.9-2.25-.23-7.43,3.83-8.78,4.5-3.15-2.7-2.48-4.27.23-.68-.67-2.93-4.5-2.7-5.86-2.7-4.5-2-5.4-.68A39.9,39.9,0,0,1,189.61,60c-.9.45-2.25-3.83-2.92,3.15s2.48,9-1.13,9.45a18.39,18.39,0,0,0-6.75,2.48s-2.92.23-2.92,2-1.13,6.07-2.48,6.52-4.73-.22-5.85-1.57.22-6.3.22-6.3l2-2s-14.41-2.25-14.18-3.15-4.28-2.48-4.73-3.83a11.09,11.09,0,0,1-.22-5.4c.45-1.12,6.52-6.53,9.67-7.65s8.56-3.6,10.13-4,4.28-.23,5.18-1.35a7.37,7.37,0,0,0,1.13-3.15s-.45-3.16.45-2.71,2.47,1.13,2.7,1.8.22,2.26,1.8.45,3.6-2.47,5.4-3.37,4.5-.68,6.08-1.58,4.27-1.8,4.5-4.05-.68-1.57-1.8-1.8.45.23-3.38,2-2.7.45-5.4,1.8-2.93,1.57-3.15.45a6.88,6.88,0,0,1,.45-2.93s.22-.22-1.35-.67-1.58.22-1.8-1.8,1.12-5-1.13-4.06-4.27-.67-5.85,3.83-7,9.23-8.33,8.1-1.57-1.35-2.7-1.35-2.7-1.35-4.73-1.57a67.76,67.76,0,0,0-9.67,0c-1.58.22-3.38-.9-4.73.45s-3.38,3.15-3.38,3.83-2-2.48-2.7-2.26-2.48-.9-4.5-.9-3.38-1.12-4-1.12.67-1.8,0-2-15.31-.67-15.31-.67-4.72-1.8-6.52-1.58-6.76.45-10.58,1.13-9.46,2.92-11.26,3.15-5.85.22-6.53-.9.23-.9-.67-1.13-.23-.67-2.25-2.25.9-2.92-3.15-2.92-6.53-.23-10.13,0-11,2-11.93,1.8-8.1,1.12-9.23.45-6.75,2.47-7.88,2.25-5.4.22-6.52.9S21,38,22.83,39.1A3.54,3.54,0,0,1,24.63,42c.23.67-1.8,2.25-1.8,2.25a13.91,13.91,0,0,1-2.93-.9c-2.47-.9-5.17-1.35-6.3-.68s-3.15,2-2.7,2.93,3.6,2.92,4,2.25,1.58-2,2.93-1.8,3.38-.9,1.57,1.35S16.08,50.81,15,51s-3.82.45-6.3.68-2.25-.9-4.5,1.35S1,54,.55,56.43s-.9,2.48,0,3.15-1.8.9.22,1.58,4.5,1.35,4.28,2,2.25-.89.9.9-2.25,3.38.45,1.58,4.27-.45,6.53-1.58,4.5-1.35,5.85-2.25,2-2.25,4-2.92.67.22.9,1.35,0,1.35,1.35.45,1.35-.23,3.15-1.35,3.83-2.25,5.18-1.58a4.69,4.69,0,0,0,2.7.68c.9,0-1.13-.23.9,0s-.9-.68,5.85.9,8.56.45,9,2.92,1.36-.22,2.48,1.35,1.8.23,2.48,2.93,0,10.13-.45,11-.68.9-.45,2.92,2.92,11.71,2,12.38a7.62,7.62,0,0,1-2.92.9l-1.13,4A35,35,0,0,1,50.52,103c-1.58,1.8-3.6,4-4.73,5.63s-2,4.28-3.6,5.85-2.93.9-2.48,4.28,0,7,.45,9.45a24.31,24.31,0,0,0,2.48,7.2c.9,1.35,1.57,1.35,3.15,2.48s3.6,2.48,3.38,3.6.22,8.1.22,8.1A12.8,12.8,0,0,1,51,154.34a12.89,12.89,0,0,0,1.8,4.95l1.35,2.93s.67.23,1.57,2a9.92,9.92,0,0,1,1.13,2.7c.22.91.22.68.22.91a30.15,30.15,0,0,0-.67-5c-.45-1.12-.45-2.47-.9-3.82s.22-2.93-1.13-4.95a12.31,12.31,0,0,1-2-4.28c-.68-2-1.58-4.28-.68-4.73s1.58-3.37,3.38,0,2,2.48,2.25,5.18A8.71,8.71,0,0,0,58.85,155c.67,1.12,2.25,4.95,3.15,6.52s0-.9,2,2.25a35.49,35.49,0,0,1,3.38,6.31c1.12,2.47,1.8,2.47,2.47,4.27s.23,1.35-.22,3.38A8.38,8.38,0,0,0,70.1,182s3.15,1.13,3.37,1.8,3.38,1.8,3.83,2.71,3.38,2,3.38,2,2.47,1.58,3.37,2a20.24,20.24,0,0,0,3.6.9s1.81.45,2.48.67a13.78,13.78,0,0,0,2.7.23s1.8-1.35,2.48-.9,2.25-.9,2.92.22,2,1.13,2.7,2,1.35.9,2.48,2,2.25.9,3.38,1.8a4.54,4.54,0,0,0,3.37.9,6.14,6.14,0,0,1,2.25.23c.9.23,1.35-.68,2.25.45a25,25,0,0,1,2.25,2.93c.68,1.12,2.25,1.12,2.48,2.92s.67,1.58.67,3.15a3,3,0,0,0,1.58,2.7c.67.45,3.15,2.7,3.15,2.7l3.38.68,2.7,2,2.93.89Z" transform="translate(0 0)"/><path class="cls-1" d="M205.93,8l13.51-1.69s4.73,0,7.09-1.69,0-1.68,7.09-3,5.06-2,8.78-1.35,4.73.67,8.78,1.35,5.06-.34,8.77.67,5.41.68,8.45.68h9.45c4.73,0,9.11-2.7,10.8-1s2.7,1,8.44,1.69,8.11-.67,10.47,0,6.42-.34,11.14,0,7.09-.34,8.78-.34S330.85.94,333.22,3s5.4-.68,5.74,2,4.72.68.34,2.7-3.72,1.69-6.76,4.39,2,5.07-4.39,7.43-7.42-1.35-9.11,2.7,0,5.07-.34,7.09-1,2.36-3,4.05-2,0-6.75,1-8.1,2-10.13,2-6.41,1.69-7.76,2.36,2.36,1.69-4.73,3.72-8.78,1.69-10.81,4.39-1.35,3-2.7,4.73-5.4,8.44-7.42,6.75-3-1.35-4.73-3-2.7-4-3.72-5.4-1.35-4.73-1.68-6.76-3.38-6.75,0-6.07,5.4.34,6.41-.34,2-3,2-3A20.71,20.71,0,0,0,262.32,28c-1-2-.34-3.71-2-5.74s-1.69-1.69-4.05-3.71-1.69-3-5.4-3.38-4.73-1.35-6.08-1-5.74-2.37-1-2.7a46.25,46.25,0,0,1,9.11.33s6.08-2.7,4.05-3,3-3.38-1.68-2.37S245.1,8.71,243.75,9s-4.73.68-8.11,1.69-7.42.68-9.45,3,0,2.7-2,2.36,1.68-2.36-3,0-3.38,2-5.74,1.35a18.36,18.36,0,0,1-4-1.68s3-.34-1.35-.68-4.39-.34-6.08-2.36-.68-2,.34-2.7a6.15,6.15,0,0,0,1.69-2Z" transform="translate(0 0)"/><path class="cls-1" d="M198.51,23.22c-1.69,1.69-5.74,4.05-4.73,5.07S195.47,33,197.5,32s-.34-4.39,7.42-1.69S212,30,213.7,34s3,7.09,2,8.1a7.91,7.91,0,0,1-4.73,3c-3.38,1-4.73,2.36-2.37,4s6.76,3.38,8.78,4.39,8.11,1.35,5.07-2,.67-4.39.67-4.39,5.74,4.39,3.72-.68-3.38-5.06-2-5.06,4,1.69,4,1.69l1.35-2.71-1.35-4.38-4.39-4.39s3.72-3.38-1.35-4.06-4.73-.67-7.43-2.36-3-2.36-8.1-1.35a44.87,44.87,0,0,0-6.75,1.69Z" transform="translate(0 0)"/><path class="cls-1" d="M123.22,27.27c2-2,7.43-6.75,9.45-5.4s5.07-1,7.43,1,5.06,4.38,7.09,5.06,4.39-1.69,6.41-.67,9.12-5.07,7.77-.34,1.69,6.08-2,6.41-7.76,3-9.45,2-3-2-5.74-.68-1.35,1.35-4.39.68-3.71.67-4.39-.34-2.7-.67-2.36-3.71,1.35-2.7-.68-2.7-3.71.33-5.06-.68-4-.68-4-.68Z" transform="translate(0 0)"/></svg>