<?xml version="1.0" encoding="utf-8"?>
<!-- Generator: Adobe Illustrator 16.0.3, SVG Export Plug-In . SVG Version: 6.00 Build 0)  -->
<!DOCTYPE svg PUBLIC "-//W3C//DTD SVG 1.1//EN" "http://www.w3.org/Graphics/SVG/1.1/DTD/svg11.dtd">
<svg version="1.1" id="Layer_1" xmlns="http://www.w3.org/2000/svg" xmlns:xlink="http://www.w3.org/1999/xlink" x="0px" y="0px"
	 width="401.96px" height="103.99px" viewBox="0 0 401.96 103.99" enable-background="new 0 0 401.96 103.99" xml:space="preserve">
<g>
	<g>
		<path fill="#483E34" d="M99.775,21.647h6.04v32.072h-3.751v0.045l-16.837-21.64v21.595h-6.039V21.693h4.896l15.692,19.856V21.647z
			"/>
		<path fill="#483E34" d="M135.23,53.719h-23.973c0-10.661,0-21.366,0-32.026h23.973v5.856h-17.98v7.366h17.339v5.627H117.25v7.229
			h17.98V53.719z"/>
		<path fill="#483E34" d="M171.371,37.889c-0.092,8.281-5.17,16.562-16.425,16.562s-16.47-8.098-16.47-16.516
			c0-8.418,5.399-16.882,16.47-16.882C165.972,21.053,171.462,29.517,171.371,37.889z M144.423,38.026
			c0.138,5.261,2.974,10.889,10.523,10.889c7.548,0,10.385-5.673,10.477-10.935c0.092-5.398-2.928-11.438-10.477-11.438
			C147.397,26.543,144.286,32.628,144.423,38.026z"/>
		<path fill="#483E34" d="M182.212,27.183h-10.157v-5.49c9.242,0,17.064,0,26.353,0v5.49h-10.157v26.536h-6.039V27.183z"/>
		<path fill="#483E34" d="M230.477,53.719h-7.183l-9.333-10.706h-5.811v10.706h-6.039V21.647c5.078,0,10.156,0.046,15.235,0.046
			c7.548,0.046,11.528,5.079,11.528,10.614c0,4.392-2.013,8.83-8.098,10.065l9.699,10.935V53.719z M208.15,27.321v10.248h9.196
			c3.843,0,5.489-2.562,5.489-5.124c0-2.563-1.692-5.124-5.489-5.124H208.15z"/>
		<path fill="#483E34" d="M264.421,37.889c-0.092,8.281-5.17,16.562-16.424,16.562c-11.255,0-16.471-8.098-16.471-16.516
			c0-8.418,5.398-16.882,16.471-16.882C259.022,21.053,264.513,29.517,264.421,37.889z M237.474,38.026
			c0.138,5.261,2.974,10.889,10.523,10.889c7.548,0,10.385-5.673,10.476-10.935c0.093-5.398-2.928-11.438-10.476-11.438
			C240.447,26.543,237.336,32.628,237.474,38.026z"/>
		<path fill="#483E34" d="M283.953,44.294h-9.059v9.425h-6.039V21.693c5.032,0,10.065-0.046,15.098-0.046
			C299.6,21.647,299.646,44.294,283.953,44.294z M274.895,38.758h9.059c7.731,0,7.687-11.346,0-11.346h-9.059V38.758z"/>
		<path fill="#483E34" d="M299.826,53.719V21.693h5.994v32.026H299.826z"/>
		<path fill="#483E34" d="M339.72,49.693c-3.293,3.248-7.548,4.758-12.169,4.758c-11.896,0-16.928-8.189-16.974-16.516
			c-0.045-8.373,5.398-16.882,16.974-16.882c4.347,0,8.464,1.647,11.758,4.895l-4.025,3.889c-2.105-2.059-4.941-3.02-7.732-3.02
			c-7.731,0-11.071,5.765-11.026,11.118c0.046,5.307,3.111,10.843,11.026,10.843c2.791,0,5.948-1.144,8.052-3.249L339.72,49.693z"/>
		<path fill="#483E34" d="M364.423,47.68h-16.744l-2.746,6.04h-6.542l14.366-32.026h6.588l14.365,32.026h-6.588L364.423,47.68z
			 M356.051,28.418l-5.948,13.634h11.896L356.051,28.418z"/>
		<path fill="#483E34" d="M382.949,21.693v26.444h16.47v5.582H376.91V21.693H382.949z"/>
		<g>
			<path fill="#71954A" d="M87.925,74.309c1.134-0.714,1.802-1.885,1.802-3.267c0-3.431-2.964-4.657-5.508-4.657h-6.762v16.296
				h6.762c3.833,0,6.039-1.638,6.039-4.483C90.258,76.514,89.37,75.078,87.925,74.309z M84.219,80.623h-4.657v-5.234h4.813
				c0.887,0,3.778,0.202,3.797,2.791C88.172,79.798,86.845,80.623,84.219,80.623z M79.562,68.316h4.657
				c1.601,0,3.477,0.714,3.477,2.727c0,1.528-1.117,2.306-3.321,2.306h-4.813V68.316z"/>
		</g>
		<g>
			<rect x="92.198" y="66.385" fill="#71954A" width="2.077" height="16.296"/>
		</g>
		<g>
			<path fill="#71954A" d="M110.616,68.399c-1.464-1.474-3.495-2.251-5.865-2.251c-5.673,0-8.208,4.199-8.208,8.362
				c0,4.063,2.562,8.427,8.208,8.427c2.8,0,4.849-1.089,6.203-2.681c1.345-1.592,1.995-3.678,2.004-5.7
				C112.976,72.113,112.144,69.926,110.616,68.399z M104.751,80.924c-4.182,0-6.112-3.313-6.13-6.396
				c-0.009-1.895,0.613-3.568,1.748-4.712c1.07-1.08,2.589-1.656,4.383-1.656c4.254,0,6.148,3.202,6.148,6.368
				C110.899,77.612,108.978,80.924,104.751,80.924z"/>
		</g>
		<g>
			<polygon fill="#71954A" points="125.612,80.64 125.612,82.681 114.852,82.681 114.852,66.385 116.957,66.385 116.957,80.64 			
				"/>
		</g>
		<g>
			<path fill="#71954A" d="M139.885,68.399c-1.464-1.474-3.486-2.251-5.865-2.251c-5.672,0-8.207,4.199-8.207,8.362
				c0,4.063,2.571,8.427,8.207,8.427c2.809,0,4.85-1.089,6.204-2.681c1.345-1.592,1.995-3.678,2.004-5.7
				C142.246,72.113,141.413,69.926,139.885,68.399z M134.02,80.924c-4.181,0-6.112-3.313-6.13-6.396
				c-0.009-1.895,0.613-3.568,1.748-4.712c1.08-1.08,2.589-1.656,4.382-1.656c4.255,0,6.158,3.202,6.158,6.368
				C140.178,77.612,138.248,80.924,134.02,80.924z"/>
		</g>
		<g>
			<path fill="#71954A" d="M150.608,73.723h7.393v6.405l-0.137,0.128c-1.739,1.738-3.797,2.617-6.121,2.617
				c-5.792,0-8.381-4.163-8.381-8.299c-0.019-2.443,0.777-4.538,2.296-6.066c1.519-1.528,3.624-2.343,6.085-2.343
				c2.232,0,4.346,0.87,5.938,2.443l0.32,0.312l-1.299,1.418l-0.338-0.33c-1.171-1.161-2.9-1.848-4.621-1.848
				c-1.857,0-3.431,0.595-4.557,1.729c-1.153,1.162-1.784,2.817-1.775,4.666c0,2.9,1.656,6.286,6.332,6.286
				c1.583,0,3.074-0.54,4.218-1.528v-3.642h-5.353V73.723z"/>
		</g>
		<g>
			<polygon fill="#71954A" points="172.165,66.385 172.165,66.98 172.083,67.118 166.145,76.203 166.145,82.681 164.04,82.681 
				164.04,76.203 158.047,67.007 158.047,66.413 158.504,66.385 160.142,66.385 165.092,74.089 170.069,66.385 			"/>
		</g>
		<g>
			<path fill="#71954A" d="M186.804,66.385h-1.894l-7.301,16.296h2.278l1.665-3.779h8.583l1.692,3.779h2.278L186.804,66.385z
				 M182.421,76.889l3.422-7.768l3.431,7.768H182.421z"/>
		</g>
		<g>
			<polygon fill="#71954A" points="207.866,66.385 207.866,82.681 206.731,82.681 197.042,70.814 197.042,82.681 194.938,82.681 
				194.938,66.385 196.118,66.385 205.789,78.271 205.789,66.385 			"/>
		</g>
		<g>
			<path fill="#71954A" d="M215.928,66.385h-5.664v16.296h5.664c2.451,0,4.528-0.806,6.011-2.315
				c1.428-1.473,2.241-3.568,2.241-5.801v-0.22C224.089,70.384,221.499,66.385,215.928,66.385z M215.928,80.623h-3.56V68.426h3.56
				c4.162,0,6.093,2.982,6.147,5.938c0.037,1.757-0.576,3.413-1.692,4.557C219.294,80.028,217.748,80.623,215.928,80.623z"/>
		</g>
		<g>
			<path fill="#71954A" d="M244.337,78.71l1.454,1.372l-0.338,0.329c-1.574,1.574-3.679,2.443-5.92,2.443
				c-5.746,0-8.345-4.136-8.363-8.234c-0.027-2.38,0.797-4.539,2.324-6.085c1.501-1.519,3.587-2.324,6.039-2.324
				c2.241,0,4.346,0.869,5.92,2.443l0.348,0.348l-1.501,1.299L243.998,70c-1.181-1.171-2.764-1.82-4.465-1.82
				c-1.876,0-3.449,0.595-4.557,1.711c-1.144,1.152-1.766,2.809-1.747,4.685c0.036,2.891,1.701,6.268,6.304,6.268
				c1.674,0,3.313-0.668,4.483-1.821L244.337,78.71z"/>
		</g>
		<g>
			<path fill="#71954A" d="M260.86,68.399c-1.464-1.474-3.495-2.251-5.874-2.251c-5.663,0-8.207,4.199-8.207,8.362
				c0,4.063,2.571,8.427,8.207,8.427c2.8,0,4.85-1.089,6.204-2.681c1.345-1.592,1.994-3.678,2.013-5.7
				C263.212,72.113,262.38,69.926,260.86,68.399z M254.986,80.924c-4.181,0-6.103-3.313-6.13-6.396
				c-0.009-1.895,0.613-3.568,1.748-4.712c1.079-1.08,2.598-1.656,4.382-1.656c4.255,0,6.158,3.202,6.158,6.368
				C261.145,77.612,259.214,80.924,254.986,80.924z"/>
		</g>
		<g>
			<polygon fill="#71954A" points="278.044,66.385 278.044,82.681 276.909,82.681 267.22,70.814 267.22,82.681 265.115,82.681 
				265.115,66.385 266.296,66.385 275.967,78.271 275.967,66.385 			"/>
		</g>
		<g>
			<path fill="#71954A" d="M293.104,78.161c-0.018,2.983-2.461,4.758-6.532,4.758c-2.37,0-5.38-0.942-6.716-3.586l-0.211-0.412
				l1.876-0.934l0.21,0.403c0.842,1.665,3.065,2.534,4.841,2.534c1.326,0,4.438-0.266,4.438-2.791
				c0.019-1.812-1.849-2.296-4.685-2.845c-2.837-0.55-6.058-1.181-6.058-4.401c-0.027-1.162,0.357-2.159,1.126-2.946
				c1.089-1.107,3.02-1.775,5.179-1.775c2.47,0,4.428,0.485,6.002,2.818l0.266,0.402l-1.767,1.043l-0.237-0.375
				c-0.942-1.519-2.389-1.848-4.273-1.875c-0.421,0-4.19,0.082-4.19,2.662c0,1.537,1.629,1.949,4.328,2.452l0.164,0.036
				C289.792,73.888,293.104,74.529,293.104,78.161z"/>
		</g>
		<g>
			<polygon fill="#71954A" points="306.48,80.623 306.48,82.681 294.696,82.681 294.696,66.385 306.215,66.385 306.215,68.426 
				296.772,68.426 296.772,73.486 305.776,73.486 305.776,75.471 296.772,75.471 296.772,80.623 			"/>
		</g>
		<g>
			<path fill="#71954A" d="M316.472,76.724c1.235-0.164,2.278-0.649,3.056-1.436c0.915-0.925,1.419-2.224,1.4-3.66
				c-0.019-2.599-1.922-5.243-5.508-5.243h-7.22v16.296h2.096v-5.819h3.541l5.315,5.819h2.8L316.472,76.724z M310.296,68.399h5.124
				c0.988,0,1.82,0.319,2.415,0.914c0.567,0.586,0.896,1.419,0.888,2.297c-0.019,1.464-0.622,3.212-3.432,3.212h-4.995V68.399z"/>
		</g>
		<g>
			<path fill="#71954A" d="M334.68,67.3l-5.865,14.502h0.201l5.947-14.502H334.68z"/>
			<path fill="#71954A" d="M334.066,66.385l-5.38,13.295l-5.38-13.295h-2.27l6.707,16.332h1.885l6.697-16.332H334.066z
				 M328.814,81.802L334.68,67.3h0.283l-5.947,14.502H328.814z"/>
		</g>
		<g>
			<path fill="#71954A" d="M344.589,66.385h-1.886l-7.301,16.296h2.278l1.665-3.779h8.582l1.693,3.779h2.277L344.589,66.385z
				 M340.215,76.889l3.422-7.768l3.432,7.768H340.215z"/>
		</g>
		<g>
			<polygon fill="#71954A" points="362.211,66.413 362.211,68.38 356.656,68.38 356.656,82.681 354.553,82.681 354.553,68.38 
				348.998,68.38 348.998,66.413 			"/>
		</g>
		<g>
			<rect x="363.556" y="66.385" fill="#71954A" width="2.077" height="16.296"/>
		</g>
		<g>
			<path fill="#71954A" d="M381.982,68.399c-1.464-1.474-3.495-2.251-5.864-2.251c-5.673,0-8.217,4.199-8.217,8.362
				c0,4.063,2.571,8.427,8.217,8.427c2.809,0,4.849-1.089,6.194-2.681c1.354-1.592,1.994-3.678,2.013-5.7
				C384.334,72.113,383.502,69.926,381.982,68.399z M376.118,80.924c-4.19,0-6.112-3.313-6.131-6.396
				c-0.018-1.895,0.604-3.568,1.748-4.712c1.07-1.08,2.589-1.656,4.383-1.656c4.245,0,6.148,3.202,6.148,6.368
				C382.267,77.612,380.345,80.924,376.118,80.924z"/>
		</g>
		<g>
			<polygon fill="#71954A" points="399.166,66.385 399.166,82.681 398.031,82.681 388.342,70.814 388.342,82.681 386.237,82.681 
				386.237,66.385 387.418,66.385 397.089,78.271 397.089,66.385 			"/>
		</g>
	</g>
	<path fill="#71954A" d="M21.27,41.636c-1.812,0-3.275,1.464-3.275,3.275s1.464,3.275,3.275,3.275s3.276-1.464,3.276-3.275
		S23.082,41.636,21.27,41.636z M21.27,41.636c-1.812,0-3.275,1.464-3.275,3.275s1.464,3.275,3.275,3.275s3.276-1.464,3.276-3.275
		S23.082,41.636,21.27,41.636z"/>
	<g>
		<path fill="#71954A" d="M34.024,21.333H2.541v14.603c3.486-1.235,7.411-1.958,11.702-1.72l5.728-0.045
			c13.889-0.091,20.02,8.473,21.474,10.906c-2.918-0.183-5.956,0.75-7.777,2.269c-5.316,3.688-4.072,9.625-2.388,12.892
			c-0.119,0.192-0.229,0.402-0.33,0.622c-2.47,5.316-0.512,8.583,0.778,9.982c-2.543,3.807-5.627,7.338-9.378,10.01
			c3.102,1.098,6.441,1.692,9.918,1.692h31.483V51.06C63.751,34.636,50.439,21.333,34.024,21.333z M33.467,70
			c-0.165-0.137-0.43-0.375-0.714-0.741c-0.896-1.152-1.949-3.514-0.266-7.347c1.025,1.079,2.068,1.774,3.093,2.296
			c0.814,0.412,1.62,0.714,2.379,1.007c1.107,0.421,2.114,0.796,3.038,1.445C39.898,67.822,37.053,70.356,33.467,70z M49.039,71.765
			c-1.199,1.574-2.434,2.8-3.349,3.605c0.009-2.498-0.229-6.615-1.839-8.546c-0.211-0.256-0.421-0.485-0.641-0.704
			c-0.146-0.138-0.293-0.266-0.439-0.394c-0.155-0.138-0.311-0.266-0.476-0.385c-0.165-0.128-0.338-0.247-0.513-0.356
			c-0.165-0.11-0.338-0.211-0.512-0.312c-0.869-0.494-1.784-0.832-2.663-1.171c-0.75-0.293-1.491-0.567-2.214-0.942
			c-0.988-0.494-1.949-1.162-2.9-2.251c-0.073-0.082-0.137-0.165-0.21-0.247c-0.019-0.027-0.046-0.073-0.064-0.119
			c-0.064-0.101-0.138-0.229-0.229-0.402c-0.064-0.128-0.137-0.274-0.22-0.439c-0.055-0.128-0.119-0.265-0.183-0.421
			c-0.988-2.296-2.16-6.871,2.187-9.881c1.821-1.51,5.042-2.306,7.777-1.729c0.906,0.183,1.748,0.521,2.479,1.025
			c3.376,2.342,5.462,4.95,6.569,8.207C53.376,61.537,52.415,67.319,49.039,71.765z"/>
		<g>
			<g>
				<circle fill="#FFFFFF" cx="21.27" cy="44.912" r="3.276"/>
				<circle fill="#71954A" cx="21.27" cy="44.912" r="3.276"/>
			</g>
		</g>
	</g>
</g>
</svg>
